M48
; DRILL file KiCad 10.0.1 date 2026-05-05T17:27:47
; FORMAT={-:-/ absolute / metric / decimal}
; #@! TF.CreationDate,2026-05-05T17:27:47+05:30
; #@! TF.GenerationSoftware,Kicad,Pcbnew,10.0.1
; #@! TF.FileFunction,MixedPlating,1,2
FMAT,2
METRIC
; #@! TA.AperFunction,Plated,PTH,ComponentDrill
T1C0.700
; #@! TA.AperFunction,Plated,PTH,ComponentDrill
T2C0.800
; #@! TA.AperFunction,Plated,PTH,ComponentDrill
T3C0.813
; #@! TA.AperFunction,Plated,PTH,ComponentDrill
T4C1.000
; #@! TA.AperFunction,Plated,PTH,ComponentDrill
T5C1.499
%
G90
G05
T1
X116.966Y-117.724
X116.996Y-120.848
X116.996Y-123.944
X116.996Y-127.0
X116.996Y-130.076
X116.996Y-133.162
X116.996Y-136.238
X119.77Y-137.18
X122.354Y-112.336
X122.384Y-115.46
X122.384Y-118.556
X122.384Y-121.612
X122.384Y-124.688
X122.384Y-127.774
X122.384Y-130.85
X127.39Y-137.18
X129.69Y-137.18
X136.226Y-112.396
X136.226Y-115.666
X136.226Y-118.846
X136.226Y-121.976
X136.226Y-125.356
X136.226Y-128.776
X136.226Y-132.126
X137.31Y-137.18
X141.614Y-117.784
X141.614Y-121.054
X141.614Y-124.234
X141.614Y-127.364
X141.614Y-130.744
X141.614Y-134.164
X141.614Y-137.514
T2
X96.623Y-113.82
X96.623Y-155.83
X98.623Y-113.82
X98.623Y-149.83
X98.623Y-155.83
X100.623Y-113.82
X100.623Y-155.83
X125.53Y-112.56
X125.53Y-115.1
X125.53Y-117.64
X125.53Y-120.18
X125.53Y-122.72
X125.53Y-125.26
X125.53Y-127.8
X125.53Y-130.34
X133.15Y-112.56
X133.15Y-115.1
X133.15Y-117.64
X133.15Y-120.18
X133.15Y-122.72
X133.15Y-125.26
X133.15Y-127.8
X133.15Y-130.34
X158.85Y-113.88
X158.85Y-155.88
X160.845Y-119.88
X160.845Y-125.88
X160.845Y-131.88
X160.845Y-137.88
X160.845Y-143.88
X160.845Y-149.88
X160.85Y-113.88
X160.85Y-155.88
X162.85Y-113.88
X162.85Y-155.88
T3
X103.9Y-119.44
X103.9Y-124.46
X103.9Y-129.54
X103.9Y-134.62
X105.9Y-119.44
X105.9Y-124.46
X105.9Y-129.54
X105.9Y-134.62
X107.9Y-119.44
X107.9Y-124.46
X107.9Y-129.54
X107.9Y-134.62
X111.9Y-119.44
X111.9Y-124.46
X111.9Y-129.54
X111.9Y-134.62
X112.82Y-141.57
X112.82Y-146.63
X112.82Y-151.73
X112.82Y-156.83
X114.82Y-141.57
X114.82Y-146.63
X114.82Y-151.73
X114.82Y-156.83
X116.82Y-141.57
X116.82Y-146.63
X116.82Y-151.73
X116.82Y-156.83
X120.82Y-141.57
X120.82Y-146.63
X120.82Y-151.73
X120.82Y-156.83
X137.6Y-141.57
X137.6Y-146.63
X137.6Y-151.73
X137.6Y-156.83
X141.6Y-141.57
X141.6Y-146.63
X141.6Y-151.73
X141.6Y-156.83
X143.6Y-141.57
X143.6Y-146.63
X143.6Y-151.73
X143.6Y-156.83
X145.6Y-141.57
X145.6Y-146.63
X145.6Y-151.73
X145.6Y-156.83
X146.71Y-119.51
X146.71Y-124.93
X146.71Y-130.01
X146.71Y-135.08
X150.71Y-119.51
X150.71Y-124.93
X150.71Y-130.01
X150.71Y-135.08
X152.71Y-119.51
X152.71Y-124.93
X152.71Y-130.01
X152.71Y-135.08
X154.71Y-119.51
X154.71Y-124.93
X154.71Y-130.01
X154.71Y-135.08
T4
X98.623Y-119.83
X98.623Y-125.83
X98.623Y-131.83
X98.623Y-137.83
X98.623Y-143.83
T5
X101.7Y-119.44
X101.7Y-124.46
X101.7Y-129.54
X101.7Y-134.62
X110.62Y-141.57
X110.62Y-146.63
X110.62Y-151.73
X110.62Y-156.83
X114.1Y-119.44
X114.1Y-124.46
X114.1Y-129.54
X114.1Y-134.62
X123.02Y-141.57
X123.02Y-146.63
X123.02Y-151.73
X123.02Y-156.83
X135.4Y-141.57
X135.4Y-146.63
X135.4Y-151.73
X135.4Y-156.83
X144.51Y-119.51
X144.51Y-124.93
X144.51Y-130.01
X144.51Y-135.08
X147.8Y-141.57
X147.8Y-146.63
X147.8Y-151.73
X147.8Y-156.83
X156.91Y-119.51
X156.91Y-124.93
X156.91Y-130.01
X156.91Y-135.08
M30
