%TF.GenerationSoftware,KiCad,Pcbnew,10.0.1*%
%TF.CreationDate,2026-05-05T17:27:29+05:30*%
%TF.ProjectId,logic_tester,6c6f6769-635f-4746-9573-7465722e6b69,rev?*%
%TF.SameCoordinates,Original*%
%TF.FileFunction,Legend,Top*%
%TF.FilePolarity,Positive*%
%FSLAX46Y46*%
G04 Gerber Fmt 4.6, Leading zero omitted, Abs format (unit mm)*
G04 Created by KiCad (PCBNEW 10.0.1) date 2026-05-05 17:27:29*
%MOMM*%
%LPD*%
G01*
G04 APERTURE LIST*
%ADD10C,0.150000*%
%ADD11C,0.120000*%
%ADD12C,0.152400*%
G04 APERTURE END LIST*
D10*
X98077819Y-156163333D02*
X98792104Y-156163333D01*
X98792104Y-156163333D02*
X98934961Y-156210952D01*
X98934961Y-156210952D02*
X99030200Y-156306190D01*
X99030200Y-156306190D02*
X99077819Y-156449047D01*
X99077819Y-156449047D02*
X99077819Y-156544285D01*
X98077819Y-155210952D02*
X98077819Y-155687142D01*
X98077819Y-155687142D02*
X98554009Y-155734761D01*
X98554009Y-155734761D02*
X98506390Y-155687142D01*
X98506390Y-155687142D02*
X98458771Y-155591904D01*
X98458771Y-155591904D02*
X98458771Y-155353809D01*
X98458771Y-155353809D02*
X98506390Y-155258571D01*
X98506390Y-155258571D02*
X98554009Y-155210952D01*
X98554009Y-155210952D02*
X98649247Y-155163333D01*
X98649247Y-155163333D02*
X98887342Y-155163333D01*
X98887342Y-155163333D02*
X98982580Y-155210952D01*
X98982580Y-155210952D02*
X99030200Y-155258571D01*
X99030200Y-155258571D02*
X99077819Y-155353809D01*
X99077819Y-155353809D02*
X99077819Y-155591904D01*
X99077819Y-155591904D02*
X99030200Y-155687142D01*
X99030200Y-155687142D02*
X98982580Y-155734761D01*
X109342800Y-128416667D02*
X109295180Y-128559524D01*
X109295180Y-128559524D02*
X109295180Y-128797619D01*
X109295180Y-128797619D02*
X109342800Y-128892857D01*
X109342800Y-128892857D02*
X109390419Y-128940476D01*
X109390419Y-128940476D02*
X109485657Y-128988095D01*
X109485657Y-128988095D02*
X109580895Y-128988095D01*
X109580895Y-128988095D02*
X109676133Y-128940476D01*
X109676133Y-128940476D02*
X109723752Y-128892857D01*
X109723752Y-128892857D02*
X109771371Y-128797619D01*
X109771371Y-128797619D02*
X109818990Y-128607143D01*
X109818990Y-128607143D02*
X109866609Y-128511905D01*
X109866609Y-128511905D02*
X109914228Y-128464286D01*
X109914228Y-128464286D02*
X110009466Y-128416667D01*
X110009466Y-128416667D02*
X110104704Y-128416667D01*
X110104704Y-128416667D02*
X110199942Y-128464286D01*
X110199942Y-128464286D02*
X110247561Y-128511905D01*
X110247561Y-128511905D02*
X110295180Y-128607143D01*
X110295180Y-128607143D02*
X110295180Y-128845238D01*
X110295180Y-128845238D02*
X110247561Y-128988095D01*
X110295180Y-129321429D02*
X109295180Y-129559524D01*
X109295180Y-129559524D02*
X110009466Y-129750000D01*
X110009466Y-129750000D02*
X109295180Y-129940476D01*
X109295180Y-129940476D02*
X110295180Y-130178572D01*
X110295180Y-130464286D02*
X110295180Y-131083333D01*
X110295180Y-131083333D02*
X109914228Y-130750000D01*
X109914228Y-130750000D02*
X109914228Y-130892857D01*
X109914228Y-130892857D02*
X109866609Y-130988095D01*
X109866609Y-130988095D02*
X109818990Y-131035714D01*
X109818990Y-131035714D02*
X109723752Y-131083333D01*
X109723752Y-131083333D02*
X109485657Y-131083333D01*
X109485657Y-131083333D02*
X109390419Y-131035714D01*
X109390419Y-131035714D02*
X109342800Y-130988095D01*
X109342800Y-130988095D02*
X109295180Y-130892857D01*
X109295180Y-130892857D02*
X109295180Y-130607143D01*
X109295180Y-130607143D02*
X109342800Y-130511905D01*
X109342800Y-130511905D02*
X109390419Y-130464286D01*
X111354819Y-126834899D02*
X111592914Y-126834899D01*
X111497676Y-127072994D02*
X111592914Y-126834899D01*
X111592914Y-126834899D02*
X111497676Y-126596804D01*
X111783390Y-126977756D02*
X111592914Y-126834899D01*
X111592914Y-126834899D02*
X111783390Y-126692042D01*
X112445180Y-126834900D02*
X112207085Y-126834900D01*
X112302323Y-126596805D02*
X112207085Y-126834900D01*
X112207085Y-126834900D02*
X112302323Y-127072995D01*
X112016609Y-126692043D02*
X112207085Y-126834900D01*
X112207085Y-126834900D02*
X112016609Y-126977757D01*
X97813476Y-119284819D02*
X97813476Y-119999104D01*
X97813476Y-119999104D02*
X97765857Y-120141961D01*
X97765857Y-120141961D02*
X97670619Y-120237200D01*
X97670619Y-120237200D02*
X97527762Y-120284819D01*
X97527762Y-120284819D02*
X97432524Y-120284819D01*
X98813476Y-120284819D02*
X98242048Y-120284819D01*
X98527762Y-120284819D02*
X98527762Y-119284819D01*
X98527762Y-119284819D02*
X98432524Y-119427676D01*
X98432524Y-119427676D02*
X98337286Y-119522914D01*
X98337286Y-119522914D02*
X98242048Y-119570533D01*
X99765857Y-120284819D02*
X99194429Y-120284819D01*
X99480143Y-120284819D02*
X99480143Y-119284819D01*
X99480143Y-119284819D02*
X99384905Y-119427676D01*
X99384905Y-119427676D02*
X99289667Y-119522914D01*
X99289667Y-119522914D02*
X99194429Y-119570533D01*
X138143825Y-121407036D02*
X138244840Y-120834617D01*
X137739764Y-121002975D02*
X138446871Y-120295869D01*
X138446871Y-120295869D02*
X138716245Y-120565243D01*
X138716245Y-120565243D02*
X138749917Y-120666258D01*
X138749917Y-120666258D02*
X138749917Y-120733601D01*
X138749917Y-120733601D02*
X138716245Y-120834617D01*
X138716245Y-120834617D02*
X138615230Y-120935632D01*
X138615230Y-120935632D02*
X138514214Y-120969304D01*
X138514214Y-120969304D02*
X138446871Y-120969304D01*
X138446871Y-120969304D02*
X138345856Y-120935632D01*
X138345856Y-120935632D02*
X138076482Y-120666258D01*
X138817260Y-122080471D02*
X138413199Y-121676410D01*
X138615230Y-121878441D02*
X139322336Y-121171334D01*
X139322336Y-121171334D02*
X139153978Y-121205006D01*
X139153978Y-121205006D02*
X139019291Y-121205006D01*
X139019291Y-121205006D02*
X138918275Y-121171334D01*
X139894756Y-122215159D02*
X139423352Y-122686563D01*
X139995772Y-121777426D02*
X139322337Y-122114143D01*
X139322337Y-122114143D02*
X139760069Y-122551876D01*
X149157200Y-136809523D02*
X149204819Y-136666666D01*
X149204819Y-136666666D02*
X149204819Y-136428571D01*
X149204819Y-136428571D02*
X149157200Y-136333333D01*
X149157200Y-136333333D02*
X149109580Y-136285714D01*
X149109580Y-136285714D02*
X149014342Y-136238095D01*
X149014342Y-136238095D02*
X148919104Y-136238095D01*
X148919104Y-136238095D02*
X148823866Y-136285714D01*
X148823866Y-136285714D02*
X148776247Y-136333333D01*
X148776247Y-136333333D02*
X148728628Y-136428571D01*
X148728628Y-136428571D02*
X148681009Y-136619047D01*
X148681009Y-136619047D02*
X148633390Y-136714285D01*
X148633390Y-136714285D02*
X148585771Y-136761904D01*
X148585771Y-136761904D02*
X148490533Y-136809523D01*
X148490533Y-136809523D02*
X148395295Y-136809523D01*
X148395295Y-136809523D02*
X148300057Y-136761904D01*
X148300057Y-136761904D02*
X148252438Y-136714285D01*
X148252438Y-136714285D02*
X148204819Y-136619047D01*
X148204819Y-136619047D02*
X148204819Y-136380952D01*
X148204819Y-136380952D02*
X148252438Y-136238095D01*
X148204819Y-135904761D02*
X149204819Y-135666666D01*
X149204819Y-135666666D02*
X148490533Y-135476190D01*
X148490533Y-135476190D02*
X149204819Y-135285714D01*
X149204819Y-135285714D02*
X148204819Y-135047619D01*
X149204819Y-134142857D02*
X149204819Y-134714285D01*
X149204819Y-134428571D02*
X148204819Y-134428571D01*
X148204819Y-134428571D02*
X148347676Y-134523809D01*
X148347676Y-134523809D02*
X148442914Y-134619047D01*
X148442914Y-134619047D02*
X148490533Y-134714285D01*
X148204819Y-133809523D02*
X148204819Y-133190476D01*
X148204819Y-133190476D02*
X148585771Y-133523809D01*
X148585771Y-133523809D02*
X148585771Y-133380952D01*
X148585771Y-133380952D02*
X148633390Y-133285714D01*
X148633390Y-133285714D02*
X148681009Y-133238095D01*
X148681009Y-133238095D02*
X148776247Y-133190476D01*
X148776247Y-133190476D02*
X149014342Y-133190476D01*
X149014342Y-133190476D02*
X149109580Y-133238095D01*
X149109580Y-133238095D02*
X149157200Y-133285714D01*
X149157200Y-133285714D02*
X149204819Y-133380952D01*
X149204819Y-133380952D02*
X149204819Y-133666666D01*
X149204819Y-133666666D02*
X149157200Y-133761904D01*
X149157200Y-133761904D02*
X149109580Y-133809523D01*
X137024820Y-137180000D02*
X137262915Y-137180000D01*
X137167677Y-137418095D02*
X137262915Y-137180000D01*
X137262915Y-137180000D02*
X137167677Y-136941905D01*
X137453391Y-137322857D02*
X137262915Y-137180000D01*
X137262915Y-137180000D02*
X137453391Y-137037143D01*
X137024820Y-137180000D02*
X137262915Y-137180000D01*
X137167677Y-137418095D02*
X137262915Y-137180000D01*
X137262915Y-137180000D02*
X137167677Y-136941905D01*
X137453391Y-137322857D02*
X137262915Y-137180000D01*
X137262915Y-137180000D02*
X137453391Y-137037143D01*
X140157200Y-148439523D02*
X140204819Y-148296666D01*
X140204819Y-148296666D02*
X140204819Y-148058571D01*
X140204819Y-148058571D02*
X140157200Y-147963333D01*
X140157200Y-147963333D02*
X140109580Y-147915714D01*
X140109580Y-147915714D02*
X140014342Y-147868095D01*
X140014342Y-147868095D02*
X139919104Y-147868095D01*
X139919104Y-147868095D02*
X139823866Y-147915714D01*
X139823866Y-147915714D02*
X139776247Y-147963333D01*
X139776247Y-147963333D02*
X139728628Y-148058571D01*
X139728628Y-148058571D02*
X139681009Y-148249047D01*
X139681009Y-148249047D02*
X139633390Y-148344285D01*
X139633390Y-148344285D02*
X139585771Y-148391904D01*
X139585771Y-148391904D02*
X139490533Y-148439523D01*
X139490533Y-148439523D02*
X139395295Y-148439523D01*
X139395295Y-148439523D02*
X139300057Y-148391904D01*
X139300057Y-148391904D02*
X139252438Y-148344285D01*
X139252438Y-148344285D02*
X139204819Y-148249047D01*
X139204819Y-148249047D02*
X139204819Y-148010952D01*
X139204819Y-148010952D02*
X139252438Y-147868095D01*
X139204819Y-147534761D02*
X140204819Y-147296666D01*
X140204819Y-147296666D02*
X139490533Y-147106190D01*
X139490533Y-147106190D02*
X140204819Y-146915714D01*
X140204819Y-146915714D02*
X139204819Y-146677619D01*
X140204819Y-145772857D02*
X140204819Y-146344285D01*
X140204819Y-146058571D02*
X139204819Y-146058571D01*
X139204819Y-146058571D02*
X139347676Y-146153809D01*
X139347676Y-146153809D02*
X139442914Y-146249047D01*
X139442914Y-146249047D02*
X139490533Y-146344285D01*
X140204819Y-144820476D02*
X140204819Y-145391904D01*
X140204819Y-145106190D02*
X139204819Y-145106190D01*
X139204819Y-145106190D02*
X139347676Y-145201428D01*
X139347676Y-145201428D02*
X139442914Y-145296666D01*
X139442914Y-145296666D02*
X139490533Y-145391904D01*
X137054818Y-151730000D02*
X137292913Y-151730000D01*
X137197675Y-151968095D02*
X137292913Y-151730000D01*
X137292913Y-151730000D02*
X137197675Y-151491905D01*
X137483389Y-151872857D02*
X137292913Y-151730000D01*
X137292913Y-151730000D02*
X137483389Y-151587143D01*
X137054818Y-151730000D02*
X137292913Y-151730000D01*
X137197675Y-151968095D02*
X137292913Y-151730000D01*
X137292913Y-151730000D02*
X137197675Y-151491905D01*
X137483389Y-151872857D02*
X137292913Y-151730000D01*
X137292913Y-151730000D02*
X137483389Y-151587143D01*
X160035476Y-143334819D02*
X160035476Y-144049104D01*
X160035476Y-144049104D02*
X159987857Y-144191961D01*
X159987857Y-144191961D02*
X159892619Y-144287200D01*
X159892619Y-144287200D02*
X159749762Y-144334819D01*
X159749762Y-144334819D02*
X159654524Y-144334819D01*
X160464048Y-143430057D02*
X160511667Y-143382438D01*
X160511667Y-143382438D02*
X160606905Y-143334819D01*
X160606905Y-143334819D02*
X160845000Y-143334819D01*
X160845000Y-143334819D02*
X160940238Y-143382438D01*
X160940238Y-143382438D02*
X160987857Y-143430057D01*
X160987857Y-143430057D02*
X161035476Y-143525295D01*
X161035476Y-143525295D02*
X161035476Y-143620533D01*
X161035476Y-143620533D02*
X160987857Y-143763390D01*
X160987857Y-143763390D02*
X160416429Y-144334819D01*
X160416429Y-144334819D02*
X161035476Y-144334819D01*
X161654524Y-143334819D02*
X161749762Y-143334819D01*
X161749762Y-143334819D02*
X161845000Y-143382438D01*
X161845000Y-143382438D02*
X161892619Y-143430057D01*
X161892619Y-143430057D02*
X161940238Y-143525295D01*
X161940238Y-143525295D02*
X161987857Y-143715771D01*
X161987857Y-143715771D02*
X161987857Y-143953866D01*
X161987857Y-143953866D02*
X161940238Y-144144342D01*
X161940238Y-144144342D02*
X161892619Y-144239580D01*
X161892619Y-144239580D02*
X161845000Y-144287200D01*
X161845000Y-144287200D02*
X161749762Y-144334819D01*
X161749762Y-144334819D02*
X161654524Y-144334819D01*
X161654524Y-144334819D02*
X161559286Y-144287200D01*
X161559286Y-144287200D02*
X161511667Y-144239580D01*
X161511667Y-144239580D02*
X161464048Y-144144342D01*
X161464048Y-144144342D02*
X161416429Y-143953866D01*
X161416429Y-143953866D02*
X161416429Y-143715771D01*
X161416429Y-143715771D02*
X161464048Y-143525295D01*
X161464048Y-143525295D02*
X161511667Y-143430057D01*
X161511667Y-143430057D02*
X161559286Y-143382438D01*
X161559286Y-143382438D02*
X161654524Y-143334819D01*
X160304819Y-114689523D02*
X161019104Y-114689523D01*
X161019104Y-114689523D02*
X161161961Y-114737142D01*
X161161961Y-114737142D02*
X161257200Y-114832380D01*
X161257200Y-114832380D02*
X161304819Y-114975237D01*
X161304819Y-114975237D02*
X161304819Y-115070475D01*
X161304819Y-113689523D02*
X161304819Y-114260951D01*
X161304819Y-113975237D02*
X160304819Y-113975237D01*
X160304819Y-113975237D02*
X160447676Y-114070475D01*
X160447676Y-114070475D02*
X160542914Y-114165713D01*
X160542914Y-114165713D02*
X160590533Y-114260951D01*
X160304819Y-113070475D02*
X160304819Y-112975237D01*
X160304819Y-112975237D02*
X160352438Y-112879999D01*
X160352438Y-112879999D02*
X160400057Y-112832380D01*
X160400057Y-112832380D02*
X160495295Y-112784761D01*
X160495295Y-112784761D02*
X160685771Y-112737142D01*
X160685771Y-112737142D02*
X160923866Y-112737142D01*
X160923866Y-112737142D02*
X161114342Y-112784761D01*
X161114342Y-112784761D02*
X161209580Y-112832380D01*
X161209580Y-112832380D02*
X161257200Y-112879999D01*
X161257200Y-112879999D02*
X161304819Y-112975237D01*
X161304819Y-112975237D02*
X161304819Y-113070475D01*
X161304819Y-113070475D02*
X161257200Y-113165713D01*
X161257200Y-113165713D02*
X161209580Y-113213332D01*
X161209580Y-113213332D02*
X161114342Y-113260951D01*
X161114342Y-113260951D02*
X160923866Y-113308570D01*
X160923866Y-113308570D02*
X160685771Y-113308570D01*
X160685771Y-113308570D02*
X160495295Y-113260951D01*
X160495295Y-113260951D02*
X160400057Y-113213332D01*
X160400057Y-113213332D02*
X160352438Y-113165713D01*
X160352438Y-113165713D02*
X160304819Y-113070475D01*
X119893754Y-124745379D02*
X119321335Y-124644364D01*
X119489693Y-125149440D02*
X118782587Y-124442333D01*
X118782587Y-124442333D02*
X119051961Y-124172959D01*
X119051961Y-124172959D02*
X119152976Y-124139287D01*
X119152976Y-124139287D02*
X119220319Y-124139287D01*
X119220319Y-124139287D02*
X119321335Y-124172959D01*
X119321335Y-124172959D02*
X119422350Y-124273974D01*
X119422350Y-124273974D02*
X119456022Y-124374990D01*
X119456022Y-124374990D02*
X119456022Y-124442333D01*
X119456022Y-124442333D02*
X119422350Y-124543348D01*
X119422350Y-124543348D02*
X119152976Y-124812722D01*
X120028441Y-123667883D02*
X120499846Y-124139287D01*
X119590709Y-123566868D02*
X119927426Y-124240303D01*
X119927426Y-124240303D02*
X120365159Y-123802570D01*
X97813476Y-125284819D02*
X97813476Y-125999104D01*
X97813476Y-125999104D02*
X97765857Y-126141961D01*
X97765857Y-126141961D02*
X97670619Y-126237200D01*
X97670619Y-126237200D02*
X97527762Y-126284819D01*
X97527762Y-126284819D02*
X97432524Y-126284819D01*
X98813476Y-126284819D02*
X98242048Y-126284819D01*
X98527762Y-126284819D02*
X98527762Y-125284819D01*
X98527762Y-125284819D02*
X98432524Y-125427676D01*
X98432524Y-125427676D02*
X98337286Y-125522914D01*
X98337286Y-125522914D02*
X98242048Y-125570533D01*
X99194429Y-125380057D02*
X99242048Y-125332438D01*
X99242048Y-125332438D02*
X99337286Y-125284819D01*
X99337286Y-125284819D02*
X99575381Y-125284819D01*
X99575381Y-125284819D02*
X99670619Y-125332438D01*
X99670619Y-125332438D02*
X99718238Y-125380057D01*
X99718238Y-125380057D02*
X99765857Y-125475295D01*
X99765857Y-125475295D02*
X99765857Y-125570533D01*
X99765857Y-125570533D02*
X99718238Y-125713390D01*
X99718238Y-125713390D02*
X99146810Y-126284819D01*
X99146810Y-126284819D02*
X99765857Y-126284819D01*
X139907200Y-158083332D02*
X139954819Y-157940475D01*
X139954819Y-157940475D02*
X139954819Y-157702380D01*
X139954819Y-157702380D02*
X139907200Y-157607142D01*
X139907200Y-157607142D02*
X139859580Y-157559523D01*
X139859580Y-157559523D02*
X139764342Y-157511904D01*
X139764342Y-157511904D02*
X139669104Y-157511904D01*
X139669104Y-157511904D02*
X139573866Y-157559523D01*
X139573866Y-157559523D02*
X139526247Y-157607142D01*
X139526247Y-157607142D02*
X139478628Y-157702380D01*
X139478628Y-157702380D02*
X139431009Y-157892856D01*
X139431009Y-157892856D02*
X139383390Y-157988094D01*
X139383390Y-157988094D02*
X139335771Y-158035713D01*
X139335771Y-158035713D02*
X139240533Y-158083332D01*
X139240533Y-158083332D02*
X139145295Y-158083332D01*
X139145295Y-158083332D02*
X139050057Y-158035713D01*
X139050057Y-158035713D02*
X139002438Y-157988094D01*
X139002438Y-157988094D02*
X138954819Y-157892856D01*
X138954819Y-157892856D02*
X138954819Y-157654761D01*
X138954819Y-157654761D02*
X139002438Y-157511904D01*
X138954819Y-157178570D02*
X139954819Y-156940475D01*
X139954819Y-156940475D02*
X139240533Y-156749999D01*
X139240533Y-156749999D02*
X139954819Y-156559523D01*
X139954819Y-156559523D02*
X138954819Y-156321428D01*
X139954819Y-155892856D02*
X139954819Y-155702380D01*
X139954819Y-155702380D02*
X139907200Y-155607142D01*
X139907200Y-155607142D02*
X139859580Y-155559523D01*
X139859580Y-155559523D02*
X139716723Y-155464285D01*
X139716723Y-155464285D02*
X139526247Y-155416666D01*
X139526247Y-155416666D02*
X139145295Y-155416666D01*
X139145295Y-155416666D02*
X139050057Y-155464285D01*
X139050057Y-155464285D02*
X139002438Y-155511904D01*
X139002438Y-155511904D02*
X138954819Y-155607142D01*
X138954819Y-155607142D02*
X138954819Y-155797618D01*
X138954819Y-155797618D02*
X139002438Y-155892856D01*
X139002438Y-155892856D02*
X139050057Y-155940475D01*
X139050057Y-155940475D02*
X139145295Y-155988094D01*
X139145295Y-155988094D02*
X139383390Y-155988094D01*
X139383390Y-155988094D02*
X139478628Y-155940475D01*
X139478628Y-155940475D02*
X139526247Y-155892856D01*
X139526247Y-155892856D02*
X139573866Y-155797618D01*
X139573866Y-155797618D02*
X139573866Y-155607142D01*
X139573866Y-155607142D02*
X139526247Y-155511904D01*
X139526247Y-155511904D02*
X139478628Y-155464285D01*
X139478628Y-155464285D02*
X139383390Y-155416666D01*
X137054818Y-159535099D02*
X137292913Y-159535099D01*
X137197675Y-159773194D02*
X137292913Y-159535099D01*
X137292913Y-159535099D02*
X137197675Y-159297004D01*
X137483389Y-159677956D02*
X137292913Y-159535099D01*
X137292913Y-159535099D02*
X137483389Y-159392242D01*
X137054818Y-159535099D02*
X137292913Y-159535099D01*
X137197675Y-159773194D02*
X137292913Y-159535099D01*
X137292913Y-159535099D02*
X137197675Y-159297004D01*
X137483389Y-159677956D02*
X137292913Y-159535099D01*
X137292913Y-159535099D02*
X137483389Y-159392242D01*
X138143825Y-134687036D02*
X138244840Y-134114617D01*
X137739764Y-134282975D02*
X138446871Y-133575869D01*
X138446871Y-133575869D02*
X138716245Y-133845243D01*
X138716245Y-133845243D02*
X138749917Y-133946258D01*
X138749917Y-133946258D02*
X138749917Y-134013601D01*
X138749917Y-134013601D02*
X138716245Y-134114617D01*
X138716245Y-134114617D02*
X138615230Y-134215632D01*
X138615230Y-134215632D02*
X138514214Y-134249304D01*
X138514214Y-134249304D02*
X138446871Y-134249304D01*
X138446871Y-134249304D02*
X138345856Y-134215632D01*
X138345856Y-134215632D02*
X138076482Y-133946258D01*
X138817260Y-135360471D02*
X138413199Y-134956410D01*
X138615230Y-135158441D02*
X139322336Y-134451334D01*
X139322336Y-134451334D02*
X139153978Y-134485006D01*
X139153978Y-134485006D02*
X139019291Y-134485006D01*
X139019291Y-134485006D02*
X138918275Y-134451334D01*
X139962100Y-135091098D02*
X140029443Y-135158441D01*
X140029443Y-135158441D02*
X140063115Y-135259456D01*
X140063115Y-135259456D02*
X140063115Y-135326800D01*
X140063115Y-135326800D02*
X140029443Y-135427815D01*
X140029443Y-135427815D02*
X139928428Y-135596174D01*
X139928428Y-135596174D02*
X139760069Y-135764533D01*
X139760069Y-135764533D02*
X139591711Y-135865548D01*
X139591711Y-135865548D02*
X139490695Y-135899220D01*
X139490695Y-135899220D02*
X139423352Y-135899220D01*
X139423352Y-135899220D02*
X139322337Y-135865548D01*
X139322337Y-135865548D02*
X139254993Y-135798204D01*
X139254993Y-135798204D02*
X139221321Y-135697189D01*
X139221321Y-135697189D02*
X139221321Y-135629846D01*
X139221321Y-135629846D02*
X139254993Y-135528830D01*
X139254993Y-135528830D02*
X139356008Y-135360472D01*
X139356008Y-135360472D02*
X139524367Y-135192113D01*
X139524367Y-135192113D02*
X139692726Y-135091098D01*
X139692726Y-135091098D02*
X139793741Y-135057426D01*
X139793741Y-135057426D02*
X139861085Y-135057426D01*
X139861085Y-135057426D02*
X139962100Y-135091098D01*
X149157200Y-131819523D02*
X149204819Y-131676666D01*
X149204819Y-131676666D02*
X149204819Y-131438571D01*
X149204819Y-131438571D02*
X149157200Y-131343333D01*
X149157200Y-131343333D02*
X149109580Y-131295714D01*
X149109580Y-131295714D02*
X149014342Y-131248095D01*
X149014342Y-131248095D02*
X148919104Y-131248095D01*
X148919104Y-131248095D02*
X148823866Y-131295714D01*
X148823866Y-131295714D02*
X148776247Y-131343333D01*
X148776247Y-131343333D02*
X148728628Y-131438571D01*
X148728628Y-131438571D02*
X148681009Y-131629047D01*
X148681009Y-131629047D02*
X148633390Y-131724285D01*
X148633390Y-131724285D02*
X148585771Y-131771904D01*
X148585771Y-131771904D02*
X148490533Y-131819523D01*
X148490533Y-131819523D02*
X148395295Y-131819523D01*
X148395295Y-131819523D02*
X148300057Y-131771904D01*
X148300057Y-131771904D02*
X148252438Y-131724285D01*
X148252438Y-131724285D02*
X148204819Y-131629047D01*
X148204819Y-131629047D02*
X148204819Y-131390952D01*
X148204819Y-131390952D02*
X148252438Y-131248095D01*
X148204819Y-130914761D02*
X149204819Y-130676666D01*
X149204819Y-130676666D02*
X148490533Y-130486190D01*
X148490533Y-130486190D02*
X149204819Y-130295714D01*
X149204819Y-130295714D02*
X148204819Y-130057619D01*
X149204819Y-129152857D02*
X149204819Y-129724285D01*
X149204819Y-129438571D02*
X148204819Y-129438571D01*
X148204819Y-129438571D02*
X148347676Y-129533809D01*
X148347676Y-129533809D02*
X148442914Y-129629047D01*
X148442914Y-129629047D02*
X148490533Y-129724285D01*
X148538152Y-128295714D02*
X149204819Y-128295714D01*
X148157200Y-128533809D02*
X148871485Y-128771904D01*
X148871485Y-128771904D02*
X148871485Y-128152857D01*
X146164820Y-132715099D02*
X146402915Y-132715099D01*
X146307677Y-132953194D02*
X146402915Y-132715099D01*
X146402915Y-132715099D02*
X146307677Y-132477004D01*
X146593391Y-132857956D02*
X146402915Y-132715099D01*
X146402915Y-132715099D02*
X146593391Y-132572242D01*
X146164820Y-132715099D02*
X146402915Y-132715099D01*
X146307677Y-132953194D02*
X146402915Y-132715099D01*
X146402915Y-132715099D02*
X146307677Y-132477004D01*
X146593391Y-132857956D02*
X146402915Y-132715099D01*
X146402915Y-132715099D02*
X146593391Y-132572242D01*
X160035476Y-149334819D02*
X160035476Y-150049104D01*
X160035476Y-150049104D02*
X159987857Y-150191961D01*
X159987857Y-150191961D02*
X159892619Y-150287200D01*
X159892619Y-150287200D02*
X159749762Y-150334819D01*
X159749762Y-150334819D02*
X159654524Y-150334819D01*
X161035476Y-150334819D02*
X160464048Y-150334819D01*
X160749762Y-150334819D02*
X160749762Y-149334819D01*
X160749762Y-149334819D02*
X160654524Y-149477676D01*
X160654524Y-149477676D02*
X160559286Y-149572914D01*
X160559286Y-149572914D02*
X160464048Y-149620533D01*
X161511667Y-150334819D02*
X161702143Y-150334819D01*
X161702143Y-150334819D02*
X161797381Y-150287200D01*
X161797381Y-150287200D02*
X161845000Y-150239580D01*
X161845000Y-150239580D02*
X161940238Y-150096723D01*
X161940238Y-150096723D02*
X161987857Y-149906247D01*
X161987857Y-149906247D02*
X161987857Y-149525295D01*
X161987857Y-149525295D02*
X161940238Y-149430057D01*
X161940238Y-149430057D02*
X161892619Y-149382438D01*
X161892619Y-149382438D02*
X161797381Y-149334819D01*
X161797381Y-149334819D02*
X161606905Y-149334819D01*
X161606905Y-149334819D02*
X161511667Y-149382438D01*
X161511667Y-149382438D02*
X161464048Y-149430057D01*
X161464048Y-149430057D02*
X161416429Y-149525295D01*
X161416429Y-149525295D02*
X161416429Y-149763390D01*
X161416429Y-149763390D02*
X161464048Y-149858628D01*
X161464048Y-149858628D02*
X161511667Y-149906247D01*
X161511667Y-149906247D02*
X161606905Y-149953866D01*
X161606905Y-149953866D02*
X161797381Y-149953866D01*
X161797381Y-149953866D02*
X161892619Y-149906247D01*
X161892619Y-149906247D02*
X161940238Y-149858628D01*
X161940238Y-149858628D02*
X161987857Y-149763390D01*
X119893754Y-121689456D02*
X119321335Y-121588441D01*
X119489693Y-122093517D02*
X118782587Y-121386410D01*
X118782587Y-121386410D02*
X119051961Y-121117036D01*
X119051961Y-121117036D02*
X119152976Y-121083364D01*
X119152976Y-121083364D02*
X119220319Y-121083364D01*
X119220319Y-121083364D02*
X119321335Y-121117036D01*
X119321335Y-121117036D02*
X119422350Y-121218051D01*
X119422350Y-121218051D02*
X119456022Y-121319067D01*
X119456022Y-121319067D02*
X119456022Y-121386410D01*
X119456022Y-121386410D02*
X119422350Y-121487425D01*
X119422350Y-121487425D02*
X119152976Y-121756799D01*
X119422350Y-120746647D02*
X119860083Y-120308914D01*
X119860083Y-120308914D02*
X119893754Y-120813990D01*
X119893754Y-120813990D02*
X119994770Y-120712975D01*
X119994770Y-120712975D02*
X120095785Y-120679303D01*
X120095785Y-120679303D02*
X120163128Y-120679303D01*
X120163128Y-120679303D02*
X120264144Y-120712975D01*
X120264144Y-120712975D02*
X120432502Y-120881334D01*
X120432502Y-120881334D02*
X120466174Y-120982349D01*
X120466174Y-120982349D02*
X120466174Y-121049693D01*
X120466174Y-121049693D02*
X120432502Y-121150708D01*
X120432502Y-121150708D02*
X120230472Y-121352738D01*
X120230472Y-121352738D02*
X120129457Y-121386410D01*
X120129457Y-121386410D02*
X120062113Y-121386410D01*
X119893754Y-118593533D02*
X119321335Y-118492518D01*
X119489693Y-118997594D02*
X118782587Y-118290487D01*
X118782587Y-118290487D02*
X119051961Y-118021113D01*
X119051961Y-118021113D02*
X119152976Y-117987441D01*
X119152976Y-117987441D02*
X119220319Y-117987441D01*
X119220319Y-117987441D02*
X119321335Y-118021113D01*
X119321335Y-118021113D02*
X119422350Y-118122128D01*
X119422350Y-118122128D02*
X119456022Y-118223144D01*
X119456022Y-118223144D02*
X119456022Y-118290487D01*
X119456022Y-118290487D02*
X119422350Y-118391502D01*
X119422350Y-118391502D02*
X119152976Y-118660876D01*
X119523365Y-117684396D02*
X119523365Y-117617052D01*
X119523365Y-117617052D02*
X119557037Y-117516037D01*
X119557037Y-117516037D02*
X119725396Y-117347678D01*
X119725396Y-117347678D02*
X119826411Y-117314006D01*
X119826411Y-117314006D02*
X119893754Y-117314006D01*
X119893754Y-117314006D02*
X119994770Y-117347678D01*
X119994770Y-117347678D02*
X120062113Y-117415022D01*
X120062113Y-117415022D02*
X120129457Y-117549709D01*
X120129457Y-117549709D02*
X120129457Y-118357831D01*
X120129457Y-118357831D02*
X120567189Y-117920098D01*
X149157200Y-121319523D02*
X149204819Y-121176666D01*
X149204819Y-121176666D02*
X149204819Y-120938571D01*
X149204819Y-120938571D02*
X149157200Y-120843333D01*
X149157200Y-120843333D02*
X149109580Y-120795714D01*
X149109580Y-120795714D02*
X149014342Y-120748095D01*
X149014342Y-120748095D02*
X148919104Y-120748095D01*
X148919104Y-120748095D02*
X148823866Y-120795714D01*
X148823866Y-120795714D02*
X148776247Y-120843333D01*
X148776247Y-120843333D02*
X148728628Y-120938571D01*
X148728628Y-120938571D02*
X148681009Y-121129047D01*
X148681009Y-121129047D02*
X148633390Y-121224285D01*
X148633390Y-121224285D02*
X148585771Y-121271904D01*
X148585771Y-121271904D02*
X148490533Y-121319523D01*
X148490533Y-121319523D02*
X148395295Y-121319523D01*
X148395295Y-121319523D02*
X148300057Y-121271904D01*
X148300057Y-121271904D02*
X148252438Y-121224285D01*
X148252438Y-121224285D02*
X148204819Y-121129047D01*
X148204819Y-121129047D02*
X148204819Y-120890952D01*
X148204819Y-120890952D02*
X148252438Y-120748095D01*
X148204819Y-120414761D02*
X149204819Y-120176666D01*
X149204819Y-120176666D02*
X148490533Y-119986190D01*
X148490533Y-119986190D02*
X149204819Y-119795714D01*
X149204819Y-119795714D02*
X148204819Y-119557619D01*
X149204819Y-118652857D02*
X149204819Y-119224285D01*
X149204819Y-118938571D02*
X148204819Y-118938571D01*
X148204819Y-118938571D02*
X148347676Y-119033809D01*
X148347676Y-119033809D02*
X148442914Y-119129047D01*
X148442914Y-119129047D02*
X148490533Y-119224285D01*
X148204819Y-117795714D02*
X148204819Y-117986190D01*
X148204819Y-117986190D02*
X148252438Y-118081428D01*
X148252438Y-118081428D02*
X148300057Y-118129047D01*
X148300057Y-118129047D02*
X148442914Y-118224285D01*
X148442914Y-118224285D02*
X148633390Y-118271904D01*
X148633390Y-118271904D02*
X149014342Y-118271904D01*
X149014342Y-118271904D02*
X149109580Y-118224285D01*
X149109580Y-118224285D02*
X149157200Y-118176666D01*
X149157200Y-118176666D02*
X149204819Y-118081428D01*
X149204819Y-118081428D02*
X149204819Y-117890952D01*
X149204819Y-117890952D02*
X149157200Y-117795714D01*
X149157200Y-117795714D02*
X149109580Y-117748095D01*
X149109580Y-117748095D02*
X149014342Y-117700476D01*
X149014342Y-117700476D02*
X148776247Y-117700476D01*
X148776247Y-117700476D02*
X148681009Y-117748095D01*
X148681009Y-117748095D02*
X148633390Y-117795714D01*
X148633390Y-117795714D02*
X148585771Y-117890952D01*
X148585771Y-117890952D02*
X148585771Y-118081428D01*
X148585771Y-118081428D02*
X148633390Y-118176666D01*
X148633390Y-118176666D02*
X148681009Y-118224285D01*
X148681009Y-118224285D02*
X148776247Y-118271904D01*
X146164820Y-122215099D02*
X146402915Y-122215099D01*
X146307677Y-122453194D02*
X146402915Y-122215099D01*
X146402915Y-122215099D02*
X146307677Y-121977004D01*
X146593391Y-122357956D02*
X146402915Y-122215099D01*
X146402915Y-122215099D02*
X146593391Y-122072242D01*
X146164820Y-122215099D02*
X146402915Y-122215099D01*
X146307677Y-122453194D02*
X146402915Y-122215099D01*
X146402915Y-122215099D02*
X146307677Y-121977004D01*
X146593391Y-122357956D02*
X146402915Y-122215099D01*
X146402915Y-122215099D02*
X146593391Y-122072242D01*
X119893754Y-133983148D02*
X119321335Y-133882133D01*
X119489693Y-134387209D02*
X118782587Y-133680102D01*
X118782587Y-133680102D02*
X119051961Y-133410728D01*
X119051961Y-133410728D02*
X119152976Y-133377056D01*
X119152976Y-133377056D02*
X119220319Y-133377056D01*
X119220319Y-133377056D02*
X119321335Y-133410728D01*
X119321335Y-133410728D02*
X119422350Y-133511743D01*
X119422350Y-133511743D02*
X119456022Y-133612759D01*
X119456022Y-133612759D02*
X119456022Y-133680102D01*
X119456022Y-133680102D02*
X119422350Y-133781117D01*
X119422350Y-133781117D02*
X119152976Y-134050491D01*
X119422350Y-133040339D02*
X119893754Y-132568934D01*
X119893754Y-132568934D02*
X120297815Y-133579087D01*
X160035476Y-131334819D02*
X160035476Y-132049104D01*
X160035476Y-132049104D02*
X159987857Y-132191961D01*
X159987857Y-132191961D02*
X159892619Y-132287200D01*
X159892619Y-132287200D02*
X159749762Y-132334819D01*
X159749762Y-132334819D02*
X159654524Y-132334819D01*
X160464048Y-131430057D02*
X160511667Y-131382438D01*
X160511667Y-131382438D02*
X160606905Y-131334819D01*
X160606905Y-131334819D02*
X160845000Y-131334819D01*
X160845000Y-131334819D02*
X160940238Y-131382438D01*
X160940238Y-131382438D02*
X160987857Y-131430057D01*
X160987857Y-131430057D02*
X161035476Y-131525295D01*
X161035476Y-131525295D02*
X161035476Y-131620533D01*
X161035476Y-131620533D02*
X160987857Y-131763390D01*
X160987857Y-131763390D02*
X160416429Y-132334819D01*
X160416429Y-132334819D02*
X161035476Y-132334819D01*
X161416429Y-131430057D02*
X161464048Y-131382438D01*
X161464048Y-131382438D02*
X161559286Y-131334819D01*
X161559286Y-131334819D02*
X161797381Y-131334819D01*
X161797381Y-131334819D02*
X161892619Y-131382438D01*
X161892619Y-131382438D02*
X161940238Y-131430057D01*
X161940238Y-131430057D02*
X161987857Y-131525295D01*
X161987857Y-131525295D02*
X161987857Y-131620533D01*
X161987857Y-131620533D02*
X161940238Y-131763390D01*
X161940238Y-131763390D02*
X161368810Y-132334819D01*
X161368810Y-132334819D02*
X161987857Y-132334819D01*
X138143825Y-124537036D02*
X138244840Y-123964617D01*
X137739764Y-124132975D02*
X138446871Y-123425869D01*
X138446871Y-123425869D02*
X138716245Y-123695243D01*
X138716245Y-123695243D02*
X138749917Y-123796258D01*
X138749917Y-123796258D02*
X138749917Y-123863601D01*
X138749917Y-123863601D02*
X138716245Y-123964617D01*
X138716245Y-123964617D02*
X138615230Y-124065632D01*
X138615230Y-124065632D02*
X138514214Y-124099304D01*
X138514214Y-124099304D02*
X138446871Y-124099304D01*
X138446871Y-124099304D02*
X138345856Y-124065632D01*
X138345856Y-124065632D02*
X138076482Y-123796258D01*
X138817260Y-125210471D02*
X138413199Y-124806410D01*
X138615230Y-125008441D02*
X139322336Y-124301334D01*
X139322336Y-124301334D02*
X139153978Y-124335006D01*
X139153978Y-124335006D02*
X139019291Y-124335006D01*
X139019291Y-124335006D02*
X138918275Y-124301334D01*
X139760069Y-124739067D02*
X140197802Y-125176800D01*
X140197802Y-125176800D02*
X139692726Y-125210472D01*
X139692726Y-125210472D02*
X139793741Y-125311487D01*
X139793741Y-125311487D02*
X139827413Y-125412502D01*
X139827413Y-125412502D02*
X139827413Y-125479846D01*
X139827413Y-125479846D02*
X139793741Y-125580861D01*
X139793741Y-125580861D02*
X139625382Y-125749220D01*
X139625382Y-125749220D02*
X139524367Y-125782891D01*
X139524367Y-125782891D02*
X139457024Y-125782891D01*
X139457024Y-125782891D02*
X139356008Y-125749220D01*
X139356008Y-125749220D02*
X139153978Y-125547189D01*
X139153978Y-125547189D02*
X139120306Y-125446174D01*
X139120306Y-125446174D02*
X139120306Y-125378830D01*
X109342800Y-133166667D02*
X109295180Y-133309524D01*
X109295180Y-133309524D02*
X109295180Y-133547619D01*
X109295180Y-133547619D02*
X109342800Y-133642857D01*
X109342800Y-133642857D02*
X109390419Y-133690476D01*
X109390419Y-133690476D02*
X109485657Y-133738095D01*
X109485657Y-133738095D02*
X109580895Y-133738095D01*
X109580895Y-133738095D02*
X109676133Y-133690476D01*
X109676133Y-133690476D02*
X109723752Y-133642857D01*
X109723752Y-133642857D02*
X109771371Y-133547619D01*
X109771371Y-133547619D02*
X109818990Y-133357143D01*
X109818990Y-133357143D02*
X109866609Y-133261905D01*
X109866609Y-133261905D02*
X109914228Y-133214286D01*
X109914228Y-133214286D02*
X110009466Y-133166667D01*
X110009466Y-133166667D02*
X110104704Y-133166667D01*
X110104704Y-133166667D02*
X110199942Y-133214286D01*
X110199942Y-133214286D02*
X110247561Y-133261905D01*
X110247561Y-133261905D02*
X110295180Y-133357143D01*
X110295180Y-133357143D02*
X110295180Y-133595238D01*
X110295180Y-133595238D02*
X110247561Y-133738095D01*
X110295180Y-134071429D02*
X109295180Y-134309524D01*
X109295180Y-134309524D02*
X110009466Y-134500000D01*
X110009466Y-134500000D02*
X109295180Y-134690476D01*
X109295180Y-134690476D02*
X110295180Y-134928572D01*
X109961847Y-135738095D02*
X109295180Y-135738095D01*
X110342800Y-135500000D02*
X109628514Y-135261905D01*
X109628514Y-135261905D02*
X109628514Y-135880952D01*
X111354819Y-131914899D02*
X111592914Y-131914899D01*
X111497676Y-132152994D02*
X111592914Y-131914899D01*
X111592914Y-131914899D02*
X111497676Y-131676804D01*
X111783390Y-132057756D02*
X111592914Y-131914899D01*
X111592914Y-131914899D02*
X111783390Y-131772042D01*
X112445180Y-131914900D02*
X112207085Y-131914900D01*
X112302323Y-131676805D02*
X112207085Y-131914900D01*
X112207085Y-131914900D02*
X112302323Y-132152995D01*
X112016609Y-131772043D02*
X112207085Y-131914900D01*
X112207085Y-131914900D02*
X112016609Y-132057757D01*
X123413333Y-137634819D02*
X123080000Y-137158628D01*
X122841905Y-137634819D02*
X122841905Y-136634819D01*
X122841905Y-136634819D02*
X123222857Y-136634819D01*
X123222857Y-136634819D02*
X123318095Y-136682438D01*
X123318095Y-136682438D02*
X123365714Y-136730057D01*
X123365714Y-136730057D02*
X123413333Y-136825295D01*
X123413333Y-136825295D02*
X123413333Y-136968152D01*
X123413333Y-136968152D02*
X123365714Y-137063390D01*
X123365714Y-137063390D02*
X123318095Y-137111009D01*
X123318095Y-137111009D02*
X123222857Y-137158628D01*
X123222857Y-137158628D02*
X122841905Y-137158628D01*
X123984762Y-137063390D02*
X123889524Y-137015771D01*
X123889524Y-137015771D02*
X123841905Y-136968152D01*
X123841905Y-136968152D02*
X123794286Y-136872914D01*
X123794286Y-136872914D02*
X123794286Y-136825295D01*
X123794286Y-136825295D02*
X123841905Y-136730057D01*
X123841905Y-136730057D02*
X123889524Y-136682438D01*
X123889524Y-136682438D02*
X123984762Y-136634819D01*
X123984762Y-136634819D02*
X124175238Y-136634819D01*
X124175238Y-136634819D02*
X124270476Y-136682438D01*
X124270476Y-136682438D02*
X124318095Y-136730057D01*
X124318095Y-136730057D02*
X124365714Y-136825295D01*
X124365714Y-136825295D02*
X124365714Y-136872914D01*
X124365714Y-136872914D02*
X124318095Y-136968152D01*
X124318095Y-136968152D02*
X124270476Y-137015771D01*
X124270476Y-137015771D02*
X124175238Y-137063390D01*
X124175238Y-137063390D02*
X123984762Y-137063390D01*
X123984762Y-137063390D02*
X123889524Y-137111009D01*
X123889524Y-137111009D02*
X123841905Y-137158628D01*
X123841905Y-137158628D02*
X123794286Y-137253866D01*
X123794286Y-137253866D02*
X123794286Y-137444342D01*
X123794286Y-137444342D02*
X123841905Y-137539580D01*
X123841905Y-137539580D02*
X123889524Y-137587200D01*
X123889524Y-137587200D02*
X123984762Y-137634819D01*
X123984762Y-137634819D02*
X124175238Y-137634819D01*
X124175238Y-137634819D02*
X124270476Y-137587200D01*
X124270476Y-137587200D02*
X124318095Y-137539580D01*
X124318095Y-137539580D02*
X124365714Y-137444342D01*
X124365714Y-137444342D02*
X124365714Y-137253866D01*
X124365714Y-137253866D02*
X124318095Y-137158628D01*
X124318095Y-137158628D02*
X124270476Y-137111009D01*
X124270476Y-137111009D02*
X124175238Y-137063390D01*
X119893754Y-130907225D02*
X119321335Y-130806210D01*
X119489693Y-131311286D02*
X118782587Y-130604179D01*
X118782587Y-130604179D02*
X119051961Y-130334805D01*
X119051961Y-130334805D02*
X119152976Y-130301133D01*
X119152976Y-130301133D02*
X119220319Y-130301133D01*
X119220319Y-130301133D02*
X119321335Y-130334805D01*
X119321335Y-130334805D02*
X119422350Y-130435820D01*
X119422350Y-130435820D02*
X119456022Y-130536836D01*
X119456022Y-130536836D02*
X119456022Y-130604179D01*
X119456022Y-130604179D02*
X119422350Y-130705194D01*
X119422350Y-130705194D02*
X119152976Y-130974568D01*
X119792739Y-129594027D02*
X119658052Y-129728714D01*
X119658052Y-129728714D02*
X119624380Y-129829729D01*
X119624380Y-129829729D02*
X119624380Y-129897072D01*
X119624380Y-129897072D02*
X119658052Y-130065431D01*
X119658052Y-130065431D02*
X119759067Y-130233790D01*
X119759067Y-130233790D02*
X120028441Y-130503164D01*
X120028441Y-130503164D02*
X120129457Y-130536836D01*
X120129457Y-130536836D02*
X120196800Y-130536836D01*
X120196800Y-130536836D02*
X120297815Y-130503164D01*
X120297815Y-130503164D02*
X120432502Y-130368477D01*
X120432502Y-130368477D02*
X120466174Y-130267462D01*
X120466174Y-130267462D02*
X120466174Y-130200118D01*
X120466174Y-130200118D02*
X120432502Y-130099103D01*
X120432502Y-130099103D02*
X120264144Y-129930744D01*
X120264144Y-129930744D02*
X120163128Y-129897072D01*
X120163128Y-129897072D02*
X120095785Y-129897072D01*
X120095785Y-129897072D02*
X119994770Y-129930744D01*
X119994770Y-129930744D02*
X119860083Y-130065431D01*
X119860083Y-130065431D02*
X119826411Y-130166446D01*
X119826411Y-130166446D02*
X119826411Y-130233790D01*
X119826411Y-130233790D02*
X119860083Y-130334805D01*
X109342800Y-118166667D02*
X109295180Y-118309524D01*
X109295180Y-118309524D02*
X109295180Y-118547619D01*
X109295180Y-118547619D02*
X109342800Y-118642857D01*
X109342800Y-118642857D02*
X109390419Y-118690476D01*
X109390419Y-118690476D02*
X109485657Y-118738095D01*
X109485657Y-118738095D02*
X109580895Y-118738095D01*
X109580895Y-118738095D02*
X109676133Y-118690476D01*
X109676133Y-118690476D02*
X109723752Y-118642857D01*
X109723752Y-118642857D02*
X109771371Y-118547619D01*
X109771371Y-118547619D02*
X109818990Y-118357143D01*
X109818990Y-118357143D02*
X109866609Y-118261905D01*
X109866609Y-118261905D02*
X109914228Y-118214286D01*
X109914228Y-118214286D02*
X110009466Y-118166667D01*
X110009466Y-118166667D02*
X110104704Y-118166667D01*
X110104704Y-118166667D02*
X110199942Y-118214286D01*
X110199942Y-118214286D02*
X110247561Y-118261905D01*
X110247561Y-118261905D02*
X110295180Y-118357143D01*
X110295180Y-118357143D02*
X110295180Y-118595238D01*
X110295180Y-118595238D02*
X110247561Y-118738095D01*
X110295180Y-119071429D02*
X109295180Y-119309524D01*
X109295180Y-119309524D02*
X110009466Y-119500000D01*
X110009466Y-119500000D02*
X109295180Y-119690476D01*
X109295180Y-119690476D02*
X110295180Y-119928572D01*
X109295180Y-120833333D02*
X109295180Y-120261905D01*
X109295180Y-120547619D02*
X110295180Y-120547619D01*
X110295180Y-120547619D02*
X110152323Y-120452381D01*
X110152323Y-120452381D02*
X110057085Y-120357143D01*
X110057085Y-120357143D02*
X110009466Y-120261905D01*
X111354819Y-116734899D02*
X111592914Y-116734899D01*
X111497676Y-116972994D02*
X111592914Y-116734899D01*
X111592914Y-116734899D02*
X111497676Y-116496804D01*
X111783390Y-116877756D02*
X111592914Y-116734899D01*
X111592914Y-116734899D02*
X111783390Y-116592042D01*
X112445180Y-116734900D02*
X112207085Y-116734900D01*
X112302323Y-116496805D02*
X112207085Y-116734900D01*
X112207085Y-116734900D02*
X112302323Y-116972995D01*
X112016609Y-116592043D02*
X112207085Y-116734900D01*
X112207085Y-116734900D02*
X112016609Y-116877757D01*
X138143825Y-114957036D02*
X138244840Y-114384617D01*
X137739764Y-114552975D02*
X138446871Y-113845869D01*
X138446871Y-113845869D02*
X138716245Y-114115243D01*
X138716245Y-114115243D02*
X138749917Y-114216258D01*
X138749917Y-114216258D02*
X138749917Y-114283601D01*
X138749917Y-114283601D02*
X138716245Y-114384617D01*
X138716245Y-114384617D02*
X138615230Y-114485632D01*
X138615230Y-114485632D02*
X138514214Y-114519304D01*
X138514214Y-114519304D02*
X138446871Y-114519304D01*
X138446871Y-114519304D02*
X138345856Y-114485632D01*
X138345856Y-114485632D02*
X138076482Y-114216258D01*
X138817260Y-115630471D02*
X138413199Y-115226410D01*
X138615230Y-115428441D02*
X139322336Y-114721334D01*
X139322336Y-114721334D02*
X139153978Y-114755006D01*
X139153978Y-114755006D02*
X139019291Y-114755006D01*
X139019291Y-114755006D02*
X138918275Y-114721334D01*
X140130459Y-115529456D02*
X139995772Y-115394769D01*
X139995772Y-115394769D02*
X139894756Y-115361098D01*
X139894756Y-115361098D02*
X139827413Y-115361098D01*
X139827413Y-115361098D02*
X139659054Y-115394769D01*
X139659054Y-115394769D02*
X139490695Y-115495785D01*
X139490695Y-115495785D02*
X139221321Y-115765159D01*
X139221321Y-115765159D02*
X139187650Y-115866174D01*
X139187650Y-115866174D02*
X139187650Y-115933517D01*
X139187650Y-115933517D02*
X139221321Y-116034533D01*
X139221321Y-116034533D02*
X139356008Y-116169220D01*
X139356008Y-116169220D02*
X139457024Y-116202891D01*
X139457024Y-116202891D02*
X139524367Y-116202891D01*
X139524367Y-116202891D02*
X139625382Y-116169220D01*
X139625382Y-116169220D02*
X139793741Y-116000861D01*
X139793741Y-116000861D02*
X139827413Y-115899846D01*
X139827413Y-115899846D02*
X139827413Y-115832502D01*
X139827413Y-115832502D02*
X139793741Y-115731487D01*
X139793741Y-115731487D02*
X139659054Y-115596800D01*
X139659054Y-115596800D02*
X139558039Y-115563128D01*
X139558039Y-115563128D02*
X139490695Y-115563128D01*
X139490695Y-115563128D02*
X139389680Y-115596800D01*
X97813476Y-131284819D02*
X97813476Y-131999104D01*
X97813476Y-131999104D02*
X97765857Y-132141961D01*
X97765857Y-132141961D02*
X97670619Y-132237200D01*
X97670619Y-132237200D02*
X97527762Y-132284819D01*
X97527762Y-132284819D02*
X97432524Y-132284819D01*
X98813476Y-132284819D02*
X98242048Y-132284819D01*
X98527762Y-132284819D02*
X98527762Y-131284819D01*
X98527762Y-131284819D02*
X98432524Y-131427676D01*
X98432524Y-131427676D02*
X98337286Y-131522914D01*
X98337286Y-131522914D02*
X98242048Y-131570533D01*
X99146810Y-131284819D02*
X99765857Y-131284819D01*
X99765857Y-131284819D02*
X99432524Y-131665771D01*
X99432524Y-131665771D02*
X99575381Y-131665771D01*
X99575381Y-131665771D02*
X99670619Y-131713390D01*
X99670619Y-131713390D02*
X99718238Y-131761009D01*
X99718238Y-131761009D02*
X99765857Y-131856247D01*
X99765857Y-131856247D02*
X99765857Y-132094342D01*
X99765857Y-132094342D02*
X99718238Y-132189580D01*
X99718238Y-132189580D02*
X99670619Y-132237200D01*
X99670619Y-132237200D02*
X99575381Y-132284819D01*
X99575381Y-132284819D02*
X99289667Y-132284819D01*
X99289667Y-132284819D02*
X99194429Y-132237200D01*
X99194429Y-132237200D02*
X99146810Y-132189580D01*
X149157200Y-126809523D02*
X149204819Y-126666666D01*
X149204819Y-126666666D02*
X149204819Y-126428571D01*
X149204819Y-126428571D02*
X149157200Y-126333333D01*
X149157200Y-126333333D02*
X149109580Y-126285714D01*
X149109580Y-126285714D02*
X149014342Y-126238095D01*
X149014342Y-126238095D02*
X148919104Y-126238095D01*
X148919104Y-126238095D02*
X148823866Y-126285714D01*
X148823866Y-126285714D02*
X148776247Y-126333333D01*
X148776247Y-126333333D02*
X148728628Y-126428571D01*
X148728628Y-126428571D02*
X148681009Y-126619047D01*
X148681009Y-126619047D02*
X148633390Y-126714285D01*
X148633390Y-126714285D02*
X148585771Y-126761904D01*
X148585771Y-126761904D02*
X148490533Y-126809523D01*
X148490533Y-126809523D02*
X148395295Y-126809523D01*
X148395295Y-126809523D02*
X148300057Y-126761904D01*
X148300057Y-126761904D02*
X148252438Y-126714285D01*
X148252438Y-126714285D02*
X148204819Y-126619047D01*
X148204819Y-126619047D02*
X148204819Y-126380952D01*
X148204819Y-126380952D02*
X148252438Y-126238095D01*
X148204819Y-125904761D02*
X149204819Y-125666666D01*
X149204819Y-125666666D02*
X148490533Y-125476190D01*
X148490533Y-125476190D02*
X149204819Y-125285714D01*
X149204819Y-125285714D02*
X148204819Y-125047619D01*
X149204819Y-124142857D02*
X149204819Y-124714285D01*
X149204819Y-124428571D02*
X148204819Y-124428571D01*
X148204819Y-124428571D02*
X148347676Y-124523809D01*
X148347676Y-124523809D02*
X148442914Y-124619047D01*
X148442914Y-124619047D02*
X148490533Y-124714285D01*
X148204819Y-123238095D02*
X148204819Y-123714285D01*
X148204819Y-123714285D02*
X148681009Y-123761904D01*
X148681009Y-123761904D02*
X148633390Y-123714285D01*
X148633390Y-123714285D02*
X148585771Y-123619047D01*
X148585771Y-123619047D02*
X148585771Y-123380952D01*
X148585771Y-123380952D02*
X148633390Y-123285714D01*
X148633390Y-123285714D02*
X148681009Y-123238095D01*
X148681009Y-123238095D02*
X148776247Y-123190476D01*
X148776247Y-123190476D02*
X149014342Y-123190476D01*
X149014342Y-123190476D02*
X149109580Y-123238095D01*
X149109580Y-123238095D02*
X149157200Y-123285714D01*
X149157200Y-123285714D02*
X149204819Y-123380952D01*
X149204819Y-123380952D02*
X149204819Y-123619047D01*
X149204819Y-123619047D02*
X149157200Y-123714285D01*
X149157200Y-123714285D02*
X149109580Y-123761904D01*
X146164820Y-127635099D02*
X146402915Y-127635099D01*
X146307677Y-127873194D02*
X146402915Y-127635099D01*
X146402915Y-127635099D02*
X146307677Y-127397004D01*
X146593391Y-127777956D02*
X146402915Y-127635099D01*
X146402915Y-127635099D02*
X146593391Y-127492242D01*
X146164820Y-127635099D02*
X146402915Y-127635099D01*
X146307677Y-127873194D02*
X146402915Y-127635099D01*
X146402915Y-127635099D02*
X146307677Y-127397004D01*
X146593391Y-127777956D02*
X146402915Y-127635099D01*
X146402915Y-127635099D02*
X146593391Y-127492242D01*
X129006666Y-120904819D02*
X129006666Y-121619104D01*
X129006666Y-121619104D02*
X128959047Y-121761961D01*
X128959047Y-121761961D02*
X128863809Y-121857200D01*
X128863809Y-121857200D02*
X128720952Y-121904819D01*
X128720952Y-121904819D02*
X128625714Y-121904819D01*
X130006666Y-121904819D02*
X129435238Y-121904819D01*
X129720952Y-121904819D02*
X129720952Y-120904819D01*
X129720952Y-120904819D02*
X129625714Y-121047676D01*
X129625714Y-121047676D02*
X129530476Y-121142914D01*
X129530476Y-121142914D02*
X129435238Y-121190533D01*
X138143825Y-118227036D02*
X138244840Y-117654617D01*
X137739764Y-117822975D02*
X138446871Y-117115869D01*
X138446871Y-117115869D02*
X138716245Y-117385243D01*
X138716245Y-117385243D02*
X138749917Y-117486258D01*
X138749917Y-117486258D02*
X138749917Y-117553601D01*
X138749917Y-117553601D02*
X138716245Y-117654617D01*
X138716245Y-117654617D02*
X138615230Y-117755632D01*
X138615230Y-117755632D02*
X138514214Y-117789304D01*
X138514214Y-117789304D02*
X138446871Y-117789304D01*
X138446871Y-117789304D02*
X138345856Y-117755632D01*
X138345856Y-117755632D02*
X138076482Y-117486258D01*
X138817260Y-118900471D02*
X138413199Y-118496410D01*
X138615230Y-118698441D02*
X139322336Y-117991334D01*
X139322336Y-117991334D02*
X139153978Y-118025006D01*
X139153978Y-118025006D02*
X139019291Y-118025006D01*
X139019291Y-118025006D02*
X138918275Y-117991334D01*
X140164130Y-118833128D02*
X139827413Y-118496410D01*
X139827413Y-118496410D02*
X139457024Y-118799456D01*
X139457024Y-118799456D02*
X139524367Y-118799456D01*
X139524367Y-118799456D02*
X139625382Y-118833128D01*
X139625382Y-118833128D02*
X139793741Y-119001487D01*
X139793741Y-119001487D02*
X139827413Y-119102502D01*
X139827413Y-119102502D02*
X139827413Y-119169846D01*
X139827413Y-119169846D02*
X139793741Y-119270861D01*
X139793741Y-119270861D02*
X139625382Y-119439220D01*
X139625382Y-119439220D02*
X139524367Y-119472891D01*
X139524367Y-119472891D02*
X139457024Y-119472891D01*
X139457024Y-119472891D02*
X139356008Y-119439220D01*
X139356008Y-119439220D02*
X139187650Y-119270861D01*
X139187650Y-119270861D02*
X139153978Y-119169846D01*
X139153978Y-119169846D02*
X139153978Y-119102502D01*
X118342800Y-140416667D02*
X118295180Y-140559524D01*
X118295180Y-140559524D02*
X118295180Y-140797619D01*
X118295180Y-140797619D02*
X118342800Y-140892857D01*
X118342800Y-140892857D02*
X118390419Y-140940476D01*
X118390419Y-140940476D02*
X118485657Y-140988095D01*
X118485657Y-140988095D02*
X118580895Y-140988095D01*
X118580895Y-140988095D02*
X118676133Y-140940476D01*
X118676133Y-140940476D02*
X118723752Y-140892857D01*
X118723752Y-140892857D02*
X118771371Y-140797619D01*
X118771371Y-140797619D02*
X118818990Y-140607143D01*
X118818990Y-140607143D02*
X118866609Y-140511905D01*
X118866609Y-140511905D02*
X118914228Y-140464286D01*
X118914228Y-140464286D02*
X119009466Y-140416667D01*
X119009466Y-140416667D02*
X119104704Y-140416667D01*
X119104704Y-140416667D02*
X119199942Y-140464286D01*
X119199942Y-140464286D02*
X119247561Y-140511905D01*
X119247561Y-140511905D02*
X119295180Y-140607143D01*
X119295180Y-140607143D02*
X119295180Y-140845238D01*
X119295180Y-140845238D02*
X119247561Y-140988095D01*
X119295180Y-141321429D02*
X118295180Y-141559524D01*
X118295180Y-141559524D02*
X119009466Y-141750000D01*
X119009466Y-141750000D02*
X118295180Y-141940476D01*
X118295180Y-141940476D02*
X119295180Y-142178572D01*
X119295180Y-143035714D02*
X119295180Y-142559524D01*
X119295180Y-142559524D02*
X118818990Y-142511905D01*
X118818990Y-142511905D02*
X118866609Y-142559524D01*
X118866609Y-142559524D02*
X118914228Y-142654762D01*
X118914228Y-142654762D02*
X118914228Y-142892857D01*
X118914228Y-142892857D02*
X118866609Y-142988095D01*
X118866609Y-142988095D02*
X118818990Y-143035714D01*
X118818990Y-143035714D02*
X118723752Y-143083333D01*
X118723752Y-143083333D02*
X118485657Y-143083333D01*
X118485657Y-143083333D02*
X118390419Y-143035714D01*
X118390419Y-143035714D02*
X118342800Y-142988095D01*
X118342800Y-142988095D02*
X118295180Y-142892857D01*
X118295180Y-142892857D02*
X118295180Y-142654762D01*
X118295180Y-142654762D02*
X118342800Y-142559524D01*
X118342800Y-142559524D02*
X118390419Y-142511905D01*
X120274819Y-138864899D02*
X120512914Y-138864899D01*
X120417676Y-139102994D02*
X120512914Y-138864899D01*
X120512914Y-138864899D02*
X120417676Y-138626804D01*
X120703390Y-139007756D02*
X120512914Y-138864899D01*
X120512914Y-138864899D02*
X120703390Y-138722042D01*
X121365180Y-138864900D02*
X121127085Y-138864900D01*
X121222323Y-138626805D02*
X121127085Y-138864900D01*
X121127085Y-138864900D02*
X121222323Y-139102995D01*
X120936609Y-138722043D02*
X121127085Y-138864900D01*
X121127085Y-138864900D02*
X120936609Y-139007757D01*
X160035476Y-125334819D02*
X160035476Y-126049104D01*
X160035476Y-126049104D02*
X159987857Y-126191961D01*
X159987857Y-126191961D02*
X159892619Y-126287200D01*
X159892619Y-126287200D02*
X159749762Y-126334819D01*
X159749762Y-126334819D02*
X159654524Y-126334819D01*
X160464048Y-125430057D02*
X160511667Y-125382438D01*
X160511667Y-125382438D02*
X160606905Y-125334819D01*
X160606905Y-125334819D02*
X160845000Y-125334819D01*
X160845000Y-125334819D02*
X160940238Y-125382438D01*
X160940238Y-125382438D02*
X160987857Y-125430057D01*
X160987857Y-125430057D02*
X161035476Y-125525295D01*
X161035476Y-125525295D02*
X161035476Y-125620533D01*
X161035476Y-125620533D02*
X160987857Y-125763390D01*
X160987857Y-125763390D02*
X160416429Y-126334819D01*
X160416429Y-126334819D02*
X161035476Y-126334819D01*
X161368810Y-125334819D02*
X161987857Y-125334819D01*
X161987857Y-125334819D02*
X161654524Y-125715771D01*
X161654524Y-125715771D02*
X161797381Y-125715771D01*
X161797381Y-125715771D02*
X161892619Y-125763390D01*
X161892619Y-125763390D02*
X161940238Y-125811009D01*
X161940238Y-125811009D02*
X161987857Y-125906247D01*
X161987857Y-125906247D02*
X161987857Y-126144342D01*
X161987857Y-126144342D02*
X161940238Y-126239580D01*
X161940238Y-126239580D02*
X161892619Y-126287200D01*
X161892619Y-126287200D02*
X161797381Y-126334819D01*
X161797381Y-126334819D02*
X161511667Y-126334819D01*
X161511667Y-126334819D02*
X161416429Y-126287200D01*
X161416429Y-126287200D02*
X161368810Y-126239580D01*
X160035476Y-119334819D02*
X160035476Y-120049104D01*
X160035476Y-120049104D02*
X159987857Y-120191961D01*
X159987857Y-120191961D02*
X159892619Y-120287200D01*
X159892619Y-120287200D02*
X159749762Y-120334819D01*
X159749762Y-120334819D02*
X159654524Y-120334819D01*
X160464048Y-119430057D02*
X160511667Y-119382438D01*
X160511667Y-119382438D02*
X160606905Y-119334819D01*
X160606905Y-119334819D02*
X160845000Y-119334819D01*
X160845000Y-119334819D02*
X160940238Y-119382438D01*
X160940238Y-119382438D02*
X160987857Y-119430057D01*
X160987857Y-119430057D02*
X161035476Y-119525295D01*
X161035476Y-119525295D02*
X161035476Y-119620533D01*
X161035476Y-119620533D02*
X160987857Y-119763390D01*
X160987857Y-119763390D02*
X160416429Y-120334819D01*
X160416429Y-120334819D02*
X161035476Y-120334819D01*
X161892619Y-119668152D02*
X161892619Y-120334819D01*
X161654524Y-119287200D02*
X161416429Y-120001485D01*
X161416429Y-120001485D02*
X162035476Y-120001485D01*
X160304819Y-156213333D02*
X161019104Y-156213333D01*
X161019104Y-156213333D02*
X161161961Y-156260952D01*
X161161961Y-156260952D02*
X161257200Y-156356190D01*
X161257200Y-156356190D02*
X161304819Y-156499047D01*
X161304819Y-156499047D02*
X161304819Y-156594285D01*
X160304819Y-155832380D02*
X160304819Y-155165714D01*
X160304819Y-155165714D02*
X161304819Y-155594285D01*
X118592800Y-145166667D02*
X118545180Y-145309524D01*
X118545180Y-145309524D02*
X118545180Y-145547619D01*
X118545180Y-145547619D02*
X118592800Y-145642857D01*
X118592800Y-145642857D02*
X118640419Y-145690476D01*
X118640419Y-145690476D02*
X118735657Y-145738095D01*
X118735657Y-145738095D02*
X118830895Y-145738095D01*
X118830895Y-145738095D02*
X118926133Y-145690476D01*
X118926133Y-145690476D02*
X118973752Y-145642857D01*
X118973752Y-145642857D02*
X119021371Y-145547619D01*
X119021371Y-145547619D02*
X119068990Y-145357143D01*
X119068990Y-145357143D02*
X119116609Y-145261905D01*
X119116609Y-145261905D02*
X119164228Y-145214286D01*
X119164228Y-145214286D02*
X119259466Y-145166667D01*
X119259466Y-145166667D02*
X119354704Y-145166667D01*
X119354704Y-145166667D02*
X119449942Y-145214286D01*
X119449942Y-145214286D02*
X119497561Y-145261905D01*
X119497561Y-145261905D02*
X119545180Y-145357143D01*
X119545180Y-145357143D02*
X119545180Y-145595238D01*
X119545180Y-145595238D02*
X119497561Y-145738095D01*
X119545180Y-146071429D02*
X118545180Y-146309524D01*
X118545180Y-146309524D02*
X119259466Y-146500000D01*
X119259466Y-146500000D02*
X118545180Y-146690476D01*
X118545180Y-146690476D02*
X119545180Y-146928572D01*
X119545180Y-147738095D02*
X119545180Y-147547619D01*
X119545180Y-147547619D02*
X119497561Y-147452381D01*
X119497561Y-147452381D02*
X119449942Y-147404762D01*
X119449942Y-147404762D02*
X119307085Y-147309524D01*
X119307085Y-147309524D02*
X119116609Y-147261905D01*
X119116609Y-147261905D02*
X118735657Y-147261905D01*
X118735657Y-147261905D02*
X118640419Y-147309524D01*
X118640419Y-147309524D02*
X118592800Y-147357143D01*
X118592800Y-147357143D02*
X118545180Y-147452381D01*
X118545180Y-147452381D02*
X118545180Y-147642857D01*
X118545180Y-147642857D02*
X118592800Y-147738095D01*
X118592800Y-147738095D02*
X118640419Y-147785714D01*
X118640419Y-147785714D02*
X118735657Y-147833333D01*
X118735657Y-147833333D02*
X118973752Y-147833333D01*
X118973752Y-147833333D02*
X119068990Y-147785714D01*
X119068990Y-147785714D02*
X119116609Y-147738095D01*
X119116609Y-147738095D02*
X119164228Y-147642857D01*
X119164228Y-147642857D02*
X119164228Y-147452381D01*
X119164228Y-147452381D02*
X119116609Y-147357143D01*
X119116609Y-147357143D02*
X119068990Y-147309524D01*
X119068990Y-147309524D02*
X118973752Y-147261905D01*
X121365180Y-141150000D02*
X121127085Y-141150000D01*
X121222323Y-140911905D02*
X121127085Y-141150000D01*
X121127085Y-141150000D02*
X121222323Y-141388095D01*
X120936609Y-141007143D02*
X121127085Y-141150000D01*
X121127085Y-141150000D02*
X120936609Y-141292857D01*
X120274819Y-141150000D02*
X120512914Y-141150000D01*
X120417676Y-141388095D02*
X120512914Y-141150000D01*
X120512914Y-141150000D02*
X120417676Y-140911905D01*
X120703390Y-141292857D02*
X120512914Y-141150000D01*
X120512914Y-141150000D02*
X120703390Y-141007143D01*
X133333333Y-137634819D02*
X133000000Y-137158628D01*
X132761905Y-137634819D02*
X132761905Y-136634819D01*
X132761905Y-136634819D02*
X133142857Y-136634819D01*
X133142857Y-136634819D02*
X133238095Y-136682438D01*
X133238095Y-136682438D02*
X133285714Y-136730057D01*
X133285714Y-136730057D02*
X133333333Y-136825295D01*
X133333333Y-136825295D02*
X133333333Y-136968152D01*
X133333333Y-136968152D02*
X133285714Y-137063390D01*
X133285714Y-137063390D02*
X133238095Y-137111009D01*
X133238095Y-137111009D02*
X133142857Y-137158628D01*
X133142857Y-137158628D02*
X132761905Y-137158628D01*
X133809524Y-137634819D02*
X134000000Y-137634819D01*
X134000000Y-137634819D02*
X134095238Y-137587200D01*
X134095238Y-137587200D02*
X134142857Y-137539580D01*
X134142857Y-137539580D02*
X134238095Y-137396723D01*
X134238095Y-137396723D02*
X134285714Y-137206247D01*
X134285714Y-137206247D02*
X134285714Y-136825295D01*
X134285714Y-136825295D02*
X134238095Y-136730057D01*
X134238095Y-136730057D02*
X134190476Y-136682438D01*
X134190476Y-136682438D02*
X134095238Y-136634819D01*
X134095238Y-136634819D02*
X133904762Y-136634819D01*
X133904762Y-136634819D02*
X133809524Y-136682438D01*
X133809524Y-136682438D02*
X133761905Y-136730057D01*
X133761905Y-136730057D02*
X133714286Y-136825295D01*
X133714286Y-136825295D02*
X133714286Y-137063390D01*
X133714286Y-137063390D02*
X133761905Y-137158628D01*
X133761905Y-137158628D02*
X133809524Y-137206247D01*
X133809524Y-137206247D02*
X133904762Y-137253866D01*
X133904762Y-137253866D02*
X134095238Y-137253866D01*
X134095238Y-137253866D02*
X134190476Y-137206247D01*
X134190476Y-137206247D02*
X134238095Y-137158628D01*
X134238095Y-137158628D02*
X134285714Y-137063390D01*
X119893754Y-127821302D02*
X119321335Y-127720287D01*
X119489693Y-128225363D02*
X118782587Y-127518256D01*
X118782587Y-127518256D02*
X119051961Y-127248882D01*
X119051961Y-127248882D02*
X119152976Y-127215210D01*
X119152976Y-127215210D02*
X119220319Y-127215210D01*
X119220319Y-127215210D02*
X119321335Y-127248882D01*
X119321335Y-127248882D02*
X119422350Y-127349897D01*
X119422350Y-127349897D02*
X119456022Y-127450913D01*
X119456022Y-127450913D02*
X119456022Y-127518256D01*
X119456022Y-127518256D02*
X119422350Y-127619271D01*
X119422350Y-127619271D02*
X119152976Y-127888645D01*
X119826411Y-126474432D02*
X119489693Y-126811149D01*
X119489693Y-126811149D02*
X119792739Y-127181539D01*
X119792739Y-127181539D02*
X119792739Y-127114195D01*
X119792739Y-127114195D02*
X119826411Y-127013180D01*
X119826411Y-127013180D02*
X119994770Y-126844821D01*
X119994770Y-126844821D02*
X120095785Y-126811149D01*
X120095785Y-126811149D02*
X120163128Y-126811149D01*
X120163128Y-126811149D02*
X120264144Y-126844821D01*
X120264144Y-126844821D02*
X120432502Y-127013180D01*
X120432502Y-127013180D02*
X120466174Y-127114195D01*
X120466174Y-127114195D02*
X120466174Y-127181539D01*
X120466174Y-127181539D02*
X120432502Y-127282554D01*
X120432502Y-127282554D02*
X120264144Y-127450913D01*
X120264144Y-127450913D02*
X120163128Y-127484584D01*
X120163128Y-127484584D02*
X120095785Y-127484584D01*
X97813476Y-143284819D02*
X97813476Y-143999104D01*
X97813476Y-143999104D02*
X97765857Y-144141961D01*
X97765857Y-144141961D02*
X97670619Y-144237200D01*
X97670619Y-144237200D02*
X97527762Y-144284819D01*
X97527762Y-144284819D02*
X97432524Y-144284819D01*
X98813476Y-144284819D02*
X98242048Y-144284819D01*
X98527762Y-144284819D02*
X98527762Y-143284819D01*
X98527762Y-143284819D02*
X98432524Y-143427676D01*
X98432524Y-143427676D02*
X98337286Y-143522914D01*
X98337286Y-143522914D02*
X98242048Y-143570533D01*
X99718238Y-143284819D02*
X99242048Y-143284819D01*
X99242048Y-143284819D02*
X99194429Y-143761009D01*
X99194429Y-143761009D02*
X99242048Y-143713390D01*
X99242048Y-143713390D02*
X99337286Y-143665771D01*
X99337286Y-143665771D02*
X99575381Y-143665771D01*
X99575381Y-143665771D02*
X99670619Y-143713390D01*
X99670619Y-143713390D02*
X99718238Y-143761009D01*
X99718238Y-143761009D02*
X99765857Y-143856247D01*
X99765857Y-143856247D02*
X99765857Y-144094342D01*
X99765857Y-144094342D02*
X99718238Y-144189580D01*
X99718238Y-144189580D02*
X99670619Y-144237200D01*
X99670619Y-144237200D02*
X99575381Y-144284819D01*
X99575381Y-144284819D02*
X99337286Y-144284819D01*
X99337286Y-144284819D02*
X99242048Y-144237200D01*
X99242048Y-144237200D02*
X99194429Y-144189580D01*
X97813476Y-137284819D02*
X97813476Y-137999104D01*
X97813476Y-137999104D02*
X97765857Y-138141961D01*
X97765857Y-138141961D02*
X97670619Y-138237200D01*
X97670619Y-138237200D02*
X97527762Y-138284819D01*
X97527762Y-138284819D02*
X97432524Y-138284819D01*
X98813476Y-138284819D02*
X98242048Y-138284819D01*
X98527762Y-138284819D02*
X98527762Y-137284819D01*
X98527762Y-137284819D02*
X98432524Y-137427676D01*
X98432524Y-137427676D02*
X98337286Y-137522914D01*
X98337286Y-137522914D02*
X98242048Y-137570533D01*
X99670619Y-137618152D02*
X99670619Y-138284819D01*
X99432524Y-137237200D02*
X99194429Y-137951485D01*
X99194429Y-137951485D02*
X99813476Y-137951485D01*
X138143825Y-127917036D02*
X138244840Y-127344617D01*
X137739764Y-127512975D02*
X138446871Y-126805869D01*
X138446871Y-126805869D02*
X138716245Y-127075243D01*
X138716245Y-127075243D02*
X138749917Y-127176258D01*
X138749917Y-127176258D02*
X138749917Y-127243601D01*
X138749917Y-127243601D02*
X138716245Y-127344617D01*
X138716245Y-127344617D02*
X138615230Y-127445632D01*
X138615230Y-127445632D02*
X138514214Y-127479304D01*
X138514214Y-127479304D02*
X138446871Y-127479304D01*
X138446871Y-127479304D02*
X138345856Y-127445632D01*
X138345856Y-127445632D02*
X138076482Y-127176258D01*
X138817260Y-128590471D02*
X138413199Y-128186410D01*
X138615230Y-128388441D02*
X139322336Y-127681334D01*
X139322336Y-127681334D02*
X139153978Y-127715006D01*
X139153978Y-127715006D02*
X139019291Y-127715006D01*
X139019291Y-127715006D02*
X138918275Y-127681334D01*
X139726398Y-128220082D02*
X139793741Y-128220082D01*
X139793741Y-128220082D02*
X139894756Y-128253754D01*
X139894756Y-128253754D02*
X140063115Y-128422113D01*
X140063115Y-128422113D02*
X140096787Y-128523128D01*
X140096787Y-128523128D02*
X140096787Y-128590472D01*
X140096787Y-128590472D02*
X140063115Y-128691487D01*
X140063115Y-128691487D02*
X139995772Y-128758830D01*
X139995772Y-128758830D02*
X139861085Y-128826174D01*
X139861085Y-128826174D02*
X139052963Y-128826174D01*
X139052963Y-128826174D02*
X139490695Y-129263907D01*
X97813476Y-149284819D02*
X97813476Y-149999104D01*
X97813476Y-149999104D02*
X97765857Y-150141961D01*
X97765857Y-150141961D02*
X97670619Y-150237200D01*
X97670619Y-150237200D02*
X97527762Y-150284819D01*
X97527762Y-150284819D02*
X97432524Y-150284819D01*
X98813476Y-150284819D02*
X98242048Y-150284819D01*
X98527762Y-150284819D02*
X98527762Y-149284819D01*
X98527762Y-149284819D02*
X98432524Y-149427676D01*
X98432524Y-149427676D02*
X98337286Y-149522914D01*
X98337286Y-149522914D02*
X98242048Y-149570533D01*
X99670619Y-149284819D02*
X99480143Y-149284819D01*
X99480143Y-149284819D02*
X99384905Y-149332438D01*
X99384905Y-149332438D02*
X99337286Y-149380057D01*
X99337286Y-149380057D02*
X99242048Y-149522914D01*
X99242048Y-149522914D02*
X99194429Y-149713390D01*
X99194429Y-149713390D02*
X99194429Y-150094342D01*
X99194429Y-150094342D02*
X99242048Y-150189580D01*
X99242048Y-150189580D02*
X99289667Y-150237200D01*
X99289667Y-150237200D02*
X99384905Y-150284819D01*
X99384905Y-150284819D02*
X99575381Y-150284819D01*
X99575381Y-150284819D02*
X99670619Y-150237200D01*
X99670619Y-150237200D02*
X99718238Y-150189580D01*
X99718238Y-150189580D02*
X99765857Y-150094342D01*
X99765857Y-150094342D02*
X99765857Y-149856247D01*
X99765857Y-149856247D02*
X99718238Y-149761009D01*
X99718238Y-149761009D02*
X99670619Y-149713390D01*
X99670619Y-149713390D02*
X99575381Y-149665771D01*
X99575381Y-149665771D02*
X99384905Y-149665771D01*
X99384905Y-149665771D02*
X99289667Y-149713390D01*
X99289667Y-149713390D02*
X99242048Y-149761009D01*
X99242048Y-149761009D02*
X99194429Y-149856247D01*
X118092800Y-155496667D02*
X118045180Y-155639524D01*
X118045180Y-155639524D02*
X118045180Y-155877619D01*
X118045180Y-155877619D02*
X118092800Y-155972857D01*
X118092800Y-155972857D02*
X118140419Y-156020476D01*
X118140419Y-156020476D02*
X118235657Y-156068095D01*
X118235657Y-156068095D02*
X118330895Y-156068095D01*
X118330895Y-156068095D02*
X118426133Y-156020476D01*
X118426133Y-156020476D02*
X118473752Y-155972857D01*
X118473752Y-155972857D02*
X118521371Y-155877619D01*
X118521371Y-155877619D02*
X118568990Y-155687143D01*
X118568990Y-155687143D02*
X118616609Y-155591905D01*
X118616609Y-155591905D02*
X118664228Y-155544286D01*
X118664228Y-155544286D02*
X118759466Y-155496667D01*
X118759466Y-155496667D02*
X118854704Y-155496667D01*
X118854704Y-155496667D02*
X118949942Y-155544286D01*
X118949942Y-155544286D02*
X118997561Y-155591905D01*
X118997561Y-155591905D02*
X119045180Y-155687143D01*
X119045180Y-155687143D02*
X119045180Y-155925238D01*
X119045180Y-155925238D02*
X118997561Y-156068095D01*
X119045180Y-156401429D02*
X118045180Y-156639524D01*
X118045180Y-156639524D02*
X118759466Y-156830000D01*
X118759466Y-156830000D02*
X118045180Y-157020476D01*
X118045180Y-157020476D02*
X119045180Y-157258572D01*
X118616609Y-157782381D02*
X118664228Y-157687143D01*
X118664228Y-157687143D02*
X118711847Y-157639524D01*
X118711847Y-157639524D02*
X118807085Y-157591905D01*
X118807085Y-157591905D02*
X118854704Y-157591905D01*
X118854704Y-157591905D02*
X118949942Y-157639524D01*
X118949942Y-157639524D02*
X118997561Y-157687143D01*
X118997561Y-157687143D02*
X119045180Y-157782381D01*
X119045180Y-157782381D02*
X119045180Y-157972857D01*
X119045180Y-157972857D02*
X118997561Y-158068095D01*
X118997561Y-158068095D02*
X118949942Y-158115714D01*
X118949942Y-158115714D02*
X118854704Y-158163333D01*
X118854704Y-158163333D02*
X118807085Y-158163333D01*
X118807085Y-158163333D02*
X118711847Y-158115714D01*
X118711847Y-158115714D02*
X118664228Y-158068095D01*
X118664228Y-158068095D02*
X118616609Y-157972857D01*
X118616609Y-157972857D02*
X118616609Y-157782381D01*
X118616609Y-157782381D02*
X118568990Y-157687143D01*
X118568990Y-157687143D02*
X118521371Y-157639524D01*
X118521371Y-157639524D02*
X118426133Y-157591905D01*
X118426133Y-157591905D02*
X118235657Y-157591905D01*
X118235657Y-157591905D02*
X118140419Y-157639524D01*
X118140419Y-157639524D02*
X118092800Y-157687143D01*
X118092800Y-157687143D02*
X118045180Y-157782381D01*
X118045180Y-157782381D02*
X118045180Y-157972857D01*
X118045180Y-157972857D02*
X118092800Y-158068095D01*
X118092800Y-158068095D02*
X118140419Y-158115714D01*
X118140419Y-158115714D02*
X118235657Y-158163333D01*
X118235657Y-158163333D02*
X118426133Y-158163333D01*
X118426133Y-158163333D02*
X118521371Y-158115714D01*
X118521371Y-158115714D02*
X118568990Y-158068095D01*
X118568990Y-158068095D02*
X118616609Y-157972857D01*
X121365180Y-151340000D02*
X121127085Y-151340000D01*
X121222323Y-151101905D02*
X121127085Y-151340000D01*
X121127085Y-151340000D02*
X121222323Y-151578095D01*
X120936609Y-151197143D02*
X121127085Y-151340000D01*
X121127085Y-151340000D02*
X120936609Y-151482857D01*
X120274819Y-151340000D02*
X120512914Y-151340000D01*
X120417676Y-151578095D02*
X120512914Y-151340000D01*
X120512914Y-151340000D02*
X120417676Y-151101905D01*
X120703390Y-151482857D02*
X120512914Y-151340000D01*
X120512914Y-151340000D02*
X120703390Y-151197143D01*
X119863754Y-115469456D02*
X119291335Y-115368441D01*
X119459693Y-115873517D02*
X118752587Y-115166410D01*
X118752587Y-115166410D02*
X119021961Y-114897036D01*
X119021961Y-114897036D02*
X119122976Y-114863364D01*
X119122976Y-114863364D02*
X119190319Y-114863364D01*
X119190319Y-114863364D02*
X119291335Y-114897036D01*
X119291335Y-114897036D02*
X119392350Y-114998051D01*
X119392350Y-114998051D02*
X119426022Y-115099067D01*
X119426022Y-115099067D02*
X119426022Y-115166410D01*
X119426022Y-115166410D02*
X119392350Y-115267425D01*
X119392350Y-115267425D02*
X119122976Y-115536799D01*
X120537189Y-114796021D02*
X120133128Y-115200082D01*
X120335159Y-114998051D02*
X119628052Y-114290945D01*
X119628052Y-114290945D02*
X119661724Y-114459303D01*
X119661724Y-114459303D02*
X119661724Y-114593990D01*
X119661724Y-114593990D02*
X119628052Y-114695006D01*
X138143825Y-131337036D02*
X138244840Y-130764617D01*
X137739764Y-130932975D02*
X138446871Y-130225869D01*
X138446871Y-130225869D02*
X138716245Y-130495243D01*
X138716245Y-130495243D02*
X138749917Y-130596258D01*
X138749917Y-130596258D02*
X138749917Y-130663601D01*
X138749917Y-130663601D02*
X138716245Y-130764617D01*
X138716245Y-130764617D02*
X138615230Y-130865632D01*
X138615230Y-130865632D02*
X138514214Y-130899304D01*
X138514214Y-130899304D02*
X138446871Y-130899304D01*
X138446871Y-130899304D02*
X138345856Y-130865632D01*
X138345856Y-130865632D02*
X138076482Y-130596258D01*
X138817260Y-132010471D02*
X138413199Y-131606410D01*
X138615230Y-131808441D02*
X139322336Y-131101334D01*
X139322336Y-131101334D02*
X139153978Y-131135006D01*
X139153978Y-131135006D02*
X139019291Y-131135006D01*
X139019291Y-131135006D02*
X138918275Y-131101334D01*
X139490695Y-132683907D02*
X139086634Y-132279846D01*
X139288665Y-132481876D02*
X139995772Y-131774769D01*
X139995772Y-131774769D02*
X139827413Y-131808441D01*
X139827413Y-131808441D02*
X139692726Y-131808441D01*
X139692726Y-131808441D02*
X139591711Y-131774769D01*
X160035476Y-137334819D02*
X160035476Y-138049104D01*
X160035476Y-138049104D02*
X159987857Y-138191961D01*
X159987857Y-138191961D02*
X159892619Y-138287200D01*
X159892619Y-138287200D02*
X159749762Y-138334819D01*
X159749762Y-138334819D02*
X159654524Y-138334819D01*
X160464048Y-137430057D02*
X160511667Y-137382438D01*
X160511667Y-137382438D02*
X160606905Y-137334819D01*
X160606905Y-137334819D02*
X160845000Y-137334819D01*
X160845000Y-137334819D02*
X160940238Y-137382438D01*
X160940238Y-137382438D02*
X160987857Y-137430057D01*
X160987857Y-137430057D02*
X161035476Y-137525295D01*
X161035476Y-137525295D02*
X161035476Y-137620533D01*
X161035476Y-137620533D02*
X160987857Y-137763390D01*
X160987857Y-137763390D02*
X160416429Y-138334819D01*
X160416429Y-138334819D02*
X161035476Y-138334819D01*
X161987857Y-138334819D02*
X161416429Y-138334819D01*
X161702143Y-138334819D02*
X161702143Y-137334819D01*
X161702143Y-137334819D02*
X161606905Y-137477676D01*
X161606905Y-137477676D02*
X161511667Y-137572914D01*
X161511667Y-137572914D02*
X161416429Y-137620533D01*
X139907200Y-153539523D02*
X139954819Y-153396666D01*
X139954819Y-153396666D02*
X139954819Y-153158571D01*
X139954819Y-153158571D02*
X139907200Y-153063333D01*
X139907200Y-153063333D02*
X139859580Y-153015714D01*
X139859580Y-153015714D02*
X139764342Y-152968095D01*
X139764342Y-152968095D02*
X139669104Y-152968095D01*
X139669104Y-152968095D02*
X139573866Y-153015714D01*
X139573866Y-153015714D02*
X139526247Y-153063333D01*
X139526247Y-153063333D02*
X139478628Y-153158571D01*
X139478628Y-153158571D02*
X139431009Y-153349047D01*
X139431009Y-153349047D02*
X139383390Y-153444285D01*
X139383390Y-153444285D02*
X139335771Y-153491904D01*
X139335771Y-153491904D02*
X139240533Y-153539523D01*
X139240533Y-153539523D02*
X139145295Y-153539523D01*
X139145295Y-153539523D02*
X139050057Y-153491904D01*
X139050057Y-153491904D02*
X139002438Y-153444285D01*
X139002438Y-153444285D02*
X138954819Y-153349047D01*
X138954819Y-153349047D02*
X138954819Y-153110952D01*
X138954819Y-153110952D02*
X139002438Y-152968095D01*
X138954819Y-152634761D02*
X139954819Y-152396666D01*
X139954819Y-152396666D02*
X139240533Y-152206190D01*
X139240533Y-152206190D02*
X139954819Y-152015714D01*
X139954819Y-152015714D02*
X138954819Y-151777619D01*
X139954819Y-150872857D02*
X139954819Y-151444285D01*
X139954819Y-151158571D02*
X138954819Y-151158571D01*
X138954819Y-151158571D02*
X139097676Y-151253809D01*
X139097676Y-151253809D02*
X139192914Y-151349047D01*
X139192914Y-151349047D02*
X139240533Y-151444285D01*
X138954819Y-150253809D02*
X138954819Y-150158571D01*
X138954819Y-150158571D02*
X139002438Y-150063333D01*
X139002438Y-150063333D02*
X139050057Y-150015714D01*
X139050057Y-150015714D02*
X139145295Y-149968095D01*
X139145295Y-149968095D02*
X139335771Y-149920476D01*
X139335771Y-149920476D02*
X139573866Y-149920476D01*
X139573866Y-149920476D02*
X139764342Y-149968095D01*
X139764342Y-149968095D02*
X139859580Y-150015714D01*
X139859580Y-150015714D02*
X139907200Y-150063333D01*
X139907200Y-150063333D02*
X139954819Y-150158571D01*
X139954819Y-150158571D02*
X139954819Y-150253809D01*
X139954819Y-150253809D02*
X139907200Y-150349047D01*
X139907200Y-150349047D02*
X139859580Y-150396666D01*
X139859580Y-150396666D02*
X139764342Y-150444285D01*
X139764342Y-150444285D02*
X139573866Y-150491904D01*
X139573866Y-150491904D02*
X139335771Y-150491904D01*
X139335771Y-150491904D02*
X139145295Y-150444285D01*
X139145295Y-150444285D02*
X139050057Y-150396666D01*
X139050057Y-150396666D02*
X139002438Y-150349047D01*
X139002438Y-150349047D02*
X138954819Y-150253809D01*
X137054818Y-156830000D02*
X137292913Y-156830000D01*
X137197675Y-157068095D02*
X137292913Y-156830000D01*
X137292913Y-156830000D02*
X137197675Y-156591905D01*
X137483389Y-156972857D02*
X137292913Y-156830000D01*
X137292913Y-156830000D02*
X137483389Y-156687143D01*
X137054818Y-156830000D02*
X137292913Y-156830000D01*
X137197675Y-157068095D02*
X137292913Y-156830000D01*
X137292913Y-156830000D02*
X137197675Y-156591905D01*
X137483389Y-156972857D02*
X137292913Y-156830000D01*
X137292913Y-156830000D02*
X137483389Y-156687143D01*
X118592800Y-150396667D02*
X118545180Y-150539524D01*
X118545180Y-150539524D02*
X118545180Y-150777619D01*
X118545180Y-150777619D02*
X118592800Y-150872857D01*
X118592800Y-150872857D02*
X118640419Y-150920476D01*
X118640419Y-150920476D02*
X118735657Y-150968095D01*
X118735657Y-150968095D02*
X118830895Y-150968095D01*
X118830895Y-150968095D02*
X118926133Y-150920476D01*
X118926133Y-150920476D02*
X118973752Y-150872857D01*
X118973752Y-150872857D02*
X119021371Y-150777619D01*
X119021371Y-150777619D02*
X119068990Y-150587143D01*
X119068990Y-150587143D02*
X119116609Y-150491905D01*
X119116609Y-150491905D02*
X119164228Y-150444286D01*
X119164228Y-150444286D02*
X119259466Y-150396667D01*
X119259466Y-150396667D02*
X119354704Y-150396667D01*
X119354704Y-150396667D02*
X119449942Y-150444286D01*
X119449942Y-150444286D02*
X119497561Y-150491905D01*
X119497561Y-150491905D02*
X119545180Y-150587143D01*
X119545180Y-150587143D02*
X119545180Y-150825238D01*
X119545180Y-150825238D02*
X119497561Y-150968095D01*
X119545180Y-151301429D02*
X118545180Y-151539524D01*
X118545180Y-151539524D02*
X119259466Y-151730000D01*
X119259466Y-151730000D02*
X118545180Y-151920476D01*
X118545180Y-151920476D02*
X119545180Y-152158572D01*
X119545180Y-152444286D02*
X119545180Y-153110952D01*
X119545180Y-153110952D02*
X118545180Y-152682381D01*
X121365180Y-146230000D02*
X121127085Y-146230000D01*
X121222323Y-145991905D02*
X121127085Y-146230000D01*
X121127085Y-146230000D02*
X121222323Y-146468095D01*
X120936609Y-146087143D02*
X121127085Y-146230000D01*
X121127085Y-146230000D02*
X120936609Y-146372857D01*
X120274819Y-146230000D02*
X120512914Y-146230000D01*
X120417676Y-146468095D02*
X120512914Y-146230000D01*
X120512914Y-146230000D02*
X120417676Y-145991905D01*
X120703390Y-146372857D02*
X120512914Y-146230000D01*
X120512914Y-146230000D02*
X120703390Y-146087143D01*
X98077819Y-114153333D02*
X98792104Y-114153333D01*
X98792104Y-114153333D02*
X98934961Y-114200952D01*
X98934961Y-114200952D02*
X99030200Y-114296190D01*
X99030200Y-114296190D02*
X99077819Y-114439047D01*
X99077819Y-114439047D02*
X99077819Y-114534285D01*
X98173057Y-113724761D02*
X98125438Y-113677142D01*
X98125438Y-113677142D02*
X98077819Y-113581904D01*
X98077819Y-113581904D02*
X98077819Y-113343809D01*
X98077819Y-113343809D02*
X98125438Y-113248571D01*
X98125438Y-113248571D02*
X98173057Y-113200952D01*
X98173057Y-113200952D02*
X98268295Y-113153333D01*
X98268295Y-113153333D02*
X98363533Y-113153333D01*
X98363533Y-113153333D02*
X98506390Y-113200952D01*
X98506390Y-113200952D02*
X99077819Y-113772380D01*
X99077819Y-113772380D02*
X99077819Y-113153333D01*
X109342800Y-123126667D02*
X109295180Y-123269524D01*
X109295180Y-123269524D02*
X109295180Y-123507619D01*
X109295180Y-123507619D02*
X109342800Y-123602857D01*
X109342800Y-123602857D02*
X109390419Y-123650476D01*
X109390419Y-123650476D02*
X109485657Y-123698095D01*
X109485657Y-123698095D02*
X109580895Y-123698095D01*
X109580895Y-123698095D02*
X109676133Y-123650476D01*
X109676133Y-123650476D02*
X109723752Y-123602857D01*
X109723752Y-123602857D02*
X109771371Y-123507619D01*
X109771371Y-123507619D02*
X109818990Y-123317143D01*
X109818990Y-123317143D02*
X109866609Y-123221905D01*
X109866609Y-123221905D02*
X109914228Y-123174286D01*
X109914228Y-123174286D02*
X110009466Y-123126667D01*
X110009466Y-123126667D02*
X110104704Y-123126667D01*
X110104704Y-123126667D02*
X110199942Y-123174286D01*
X110199942Y-123174286D02*
X110247561Y-123221905D01*
X110247561Y-123221905D02*
X110295180Y-123317143D01*
X110295180Y-123317143D02*
X110295180Y-123555238D01*
X110295180Y-123555238D02*
X110247561Y-123698095D01*
X110295180Y-124031429D02*
X109295180Y-124269524D01*
X109295180Y-124269524D02*
X110009466Y-124460000D01*
X110009466Y-124460000D02*
X109295180Y-124650476D01*
X109295180Y-124650476D02*
X110295180Y-124888572D01*
X110199942Y-125221905D02*
X110247561Y-125269524D01*
X110247561Y-125269524D02*
X110295180Y-125364762D01*
X110295180Y-125364762D02*
X110295180Y-125602857D01*
X110295180Y-125602857D02*
X110247561Y-125698095D01*
X110247561Y-125698095D02*
X110199942Y-125745714D01*
X110199942Y-125745714D02*
X110104704Y-125793333D01*
X110104704Y-125793333D02*
X110009466Y-125793333D01*
X110009466Y-125793333D02*
X109866609Y-125745714D01*
X109866609Y-125745714D02*
X109295180Y-125174286D01*
X109295180Y-125174286D02*
X109295180Y-125793333D01*
X111354819Y-121754899D02*
X111592914Y-121754899D01*
X111497676Y-121992994D02*
X111592914Y-121754899D01*
X111592914Y-121754899D02*
X111497676Y-121516804D01*
X111783390Y-121897756D02*
X111592914Y-121754899D01*
X111592914Y-121754899D02*
X111783390Y-121612042D01*
X112445180Y-121754900D02*
X112207085Y-121754900D01*
X112302323Y-121516805D02*
X112207085Y-121754900D01*
X112207085Y-121754900D02*
X112302323Y-121992995D01*
X112016609Y-121612043D02*
X112207085Y-121754900D01*
X112207085Y-121754900D02*
X112016609Y-121897757D01*
X140157200Y-143309523D02*
X140204819Y-143166666D01*
X140204819Y-143166666D02*
X140204819Y-142928571D01*
X140204819Y-142928571D02*
X140157200Y-142833333D01*
X140157200Y-142833333D02*
X140109580Y-142785714D01*
X140109580Y-142785714D02*
X140014342Y-142738095D01*
X140014342Y-142738095D02*
X139919104Y-142738095D01*
X139919104Y-142738095D02*
X139823866Y-142785714D01*
X139823866Y-142785714D02*
X139776247Y-142833333D01*
X139776247Y-142833333D02*
X139728628Y-142928571D01*
X139728628Y-142928571D02*
X139681009Y-143119047D01*
X139681009Y-143119047D02*
X139633390Y-143214285D01*
X139633390Y-143214285D02*
X139585771Y-143261904D01*
X139585771Y-143261904D02*
X139490533Y-143309523D01*
X139490533Y-143309523D02*
X139395295Y-143309523D01*
X139395295Y-143309523D02*
X139300057Y-143261904D01*
X139300057Y-143261904D02*
X139252438Y-143214285D01*
X139252438Y-143214285D02*
X139204819Y-143119047D01*
X139204819Y-143119047D02*
X139204819Y-142880952D01*
X139204819Y-142880952D02*
X139252438Y-142738095D01*
X139204819Y-142404761D02*
X140204819Y-142166666D01*
X140204819Y-142166666D02*
X139490533Y-141976190D01*
X139490533Y-141976190D02*
X140204819Y-141785714D01*
X140204819Y-141785714D02*
X139204819Y-141547619D01*
X140204819Y-140642857D02*
X140204819Y-141214285D01*
X140204819Y-140928571D02*
X139204819Y-140928571D01*
X139204819Y-140928571D02*
X139347676Y-141023809D01*
X139347676Y-141023809D02*
X139442914Y-141119047D01*
X139442914Y-141119047D02*
X139490533Y-141214285D01*
X139300057Y-140261904D02*
X139252438Y-140214285D01*
X139252438Y-140214285D02*
X139204819Y-140119047D01*
X139204819Y-140119047D02*
X139204819Y-139880952D01*
X139204819Y-139880952D02*
X139252438Y-139785714D01*
X139252438Y-139785714D02*
X139300057Y-139738095D01*
X139300057Y-139738095D02*
X139395295Y-139690476D01*
X139395295Y-139690476D02*
X139490533Y-139690476D01*
X139490533Y-139690476D02*
X139633390Y-139738095D01*
X139633390Y-139738095D02*
X140204819Y-140309523D01*
X140204819Y-140309523D02*
X140204819Y-139690476D01*
X137054818Y-146630000D02*
X137292913Y-146630000D01*
X137197675Y-146868095D02*
X137292913Y-146630000D01*
X137292913Y-146630000D02*
X137197675Y-146391905D01*
X137483389Y-146772857D02*
X137292913Y-146630000D01*
X137292913Y-146630000D02*
X137483389Y-146487143D01*
X137054818Y-146630000D02*
X137292913Y-146630000D01*
X137197675Y-146868095D02*
X137292913Y-146630000D01*
X137292913Y-146630000D02*
X137197675Y-146391905D01*
X137483389Y-146772857D02*
X137292913Y-146630000D01*
X137292913Y-146630000D02*
X137483389Y-146487143D01*
%TO.C,J5*%
D11*
X95563000Y-154770000D02*
X96623000Y-154770000D01*
X95563000Y-155830000D02*
X95563000Y-154770000D01*
X97623000Y-154770000D02*
X101683000Y-154770000D01*
X97623000Y-156890000D02*
X97623000Y-154770000D01*
X97623000Y-156890000D02*
X101683000Y-156890000D01*
X101683000Y-156890000D02*
X101683000Y-154770000D01*
%TO.C,SW3*%
D12*
X101372200Y-127215900D02*
X101372200Y-128244797D01*
X101372200Y-130835203D02*
X101372200Y-131864100D01*
X101372200Y-131864100D02*
X114427800Y-131864100D01*
X114427800Y-127215900D02*
X101372200Y-127215900D01*
X114427800Y-128244797D02*
X114427800Y-127215900D01*
X114427800Y-131864100D02*
X114427800Y-130835203D01*
%TO.C,J11*%
D11*
X97293000Y-121040000D02*
X97293000Y-121160000D01*
X97293000Y-121160000D02*
X99953000Y-121160000D01*
X98623000Y-118500000D02*
X99953000Y-118500000D01*
X99953000Y-118500000D02*
X99953000Y-119830000D01*
X99953000Y-121040000D02*
X99953000Y-121160000D01*
%TO.C,R14*%
X136890604Y-119510604D02*
X137562355Y-120182355D01*
X140949397Y-123569397D02*
X140277645Y-122897645D01*
X140928183Y-122247107D02*
X139627107Y-123548183D01*
X136911817Y-120832893D01*
X138212893Y-119531817D01*
X140928183Y-122247107D01*
%TO.C,SW13*%
D12*
X144182201Y-132755900D02*
X144182201Y-133784797D01*
X144182201Y-136375203D02*
X144182201Y-137404100D01*
X144182201Y-137404100D02*
X157237801Y-137404100D01*
X157237801Y-132755900D02*
X144182201Y-132755900D01*
X157237801Y-133784797D02*
X157237801Y-132755900D01*
X157237801Y-137404100D02*
X157237801Y-136375203D01*
%TO.C,SW11*%
X135072199Y-144305900D02*
X135072199Y-145334797D01*
X135072199Y-147925203D02*
X135072199Y-148954100D01*
X135072199Y-148954100D02*
X148127799Y-148954100D01*
X148127799Y-144305900D02*
X135072199Y-144305900D01*
X148127799Y-145334797D02*
X148127799Y-144305900D01*
X148127799Y-148954100D02*
X148127799Y-147925203D01*
%TO.C,J20*%
D11*
X159785000Y-144820000D02*
X159785000Y-144940000D01*
X159785000Y-144940000D02*
X161905000Y-144940000D01*
X160845000Y-142820000D02*
X161905000Y-142820000D01*
X161905000Y-142820000D02*
X161905000Y-143880000D01*
X161905000Y-144820000D02*
X161905000Y-144940000D01*
%TO.C,J10*%
X157790000Y-112820000D02*
X157790000Y-114940000D01*
X161850000Y-112820000D02*
X157790000Y-112820000D01*
X161850000Y-112820000D02*
X161850000Y-114940000D01*
X161850000Y-114940000D02*
X157790000Y-114940000D01*
X163910000Y-113880000D02*
X163910000Y-114940000D01*
X163910000Y-114940000D02*
X162850000Y-114940000D01*
%TO.C,R4*%
X117660604Y-126335320D02*
X118332356Y-125663568D01*
X121719397Y-122276527D02*
X121047646Y-122948278D01*
X121698184Y-123598816D02*
X118982894Y-126314106D01*
X117681818Y-125013030D01*
X120397108Y-122297740D01*
X121698184Y-123598816D01*
%TO.C,J12*%
X97293000Y-127040000D02*
X97293000Y-127160000D01*
X97293000Y-127160000D02*
X99953000Y-127160000D01*
X98623000Y-124500000D02*
X99953000Y-124500000D01*
X99953000Y-124500000D02*
X99953000Y-125830000D01*
X99953000Y-127040000D02*
X99953000Y-127160000D01*
%TO.C,SW9*%
D12*
X135072199Y-154505900D02*
X135072199Y-155534797D01*
X135072199Y-158125203D02*
X135072199Y-159154100D01*
X135072199Y-159154100D02*
X148127799Y-159154100D01*
X148127799Y-154505900D02*
X135072199Y-154505900D01*
X148127799Y-155534797D02*
X148127799Y-154505900D01*
X148127799Y-159154100D02*
X148127799Y-158125203D01*
%TO.C,R10*%
D11*
X136890604Y-132790604D02*
X137562355Y-133462355D01*
X140949397Y-136849397D02*
X140277645Y-136177645D01*
X140928183Y-135527107D02*
X139627107Y-136828183D01*
X136911817Y-134112893D01*
X138212893Y-132811817D01*
X140928183Y-135527107D01*
%TO.C,SW14*%
D12*
X144182201Y-127685900D02*
X144182201Y-128714797D01*
X144182201Y-131305203D02*
X144182201Y-132334100D01*
X144182201Y-132334100D02*
X157237801Y-132334100D01*
X157237801Y-127685900D02*
X144182201Y-127685900D01*
X157237801Y-128714797D02*
X157237801Y-127685900D01*
X157237801Y-132334100D02*
X157237801Y-131305203D01*
%TO.C,J19*%
D11*
X159785000Y-150820000D02*
X159785000Y-150940000D01*
X159785000Y-150940000D02*
X161905000Y-150940000D01*
X160845000Y-148820000D02*
X161905000Y-148820000D01*
X161905000Y-148820000D02*
X161905000Y-149880000D01*
X161905000Y-150820000D02*
X161905000Y-150940000D01*
%TO.C,R3*%
X117660604Y-123279397D02*
X118332356Y-122607645D01*
X121719397Y-119220604D02*
X121047646Y-119892355D01*
X121698184Y-120542893D02*
X118982894Y-123258183D01*
X117681818Y-121957107D01*
X120397108Y-119241817D01*
X121698184Y-120542893D01*
%TO.C,R2*%
X117660604Y-120183474D02*
X118332356Y-119511722D01*
X121719397Y-116124681D02*
X121047646Y-116796432D01*
X121698184Y-117446970D02*
X118982894Y-120162260D01*
X117681818Y-118861184D01*
X120397108Y-116145894D01*
X121698184Y-117446970D01*
%TO.C,SW16*%
D12*
X144182201Y-117185900D02*
X144182201Y-118214797D01*
X144182201Y-120805203D02*
X144182201Y-121834100D01*
X144182201Y-121834100D02*
X157237801Y-121834100D01*
X157237801Y-117185900D02*
X144182201Y-117185900D01*
X157237801Y-118214797D02*
X157237801Y-117185900D01*
X157237801Y-121834100D02*
X157237801Y-120805203D01*
%TO.C,R7*%
D11*
X117660604Y-135573089D02*
X118332356Y-134901337D01*
X121719397Y-131514296D02*
X121047646Y-132186047D01*
X121698184Y-132836585D02*
X118982894Y-135551875D01*
X117681818Y-134250799D01*
X120397108Y-131535509D01*
X121698184Y-132836585D01*
%TO.C,J22*%
X159785000Y-132820000D02*
X159785000Y-132940000D01*
X159785000Y-132940000D02*
X161905000Y-132940000D01*
X160845000Y-130820000D02*
X161905000Y-130820000D01*
X161905000Y-130820000D02*
X161905000Y-131880000D01*
X161905000Y-132820000D02*
X161905000Y-132940000D01*
%TO.C,R13*%
X136890604Y-122640604D02*
X137562355Y-123312355D01*
X140949397Y-126699397D02*
X140277645Y-126027645D01*
X140928183Y-125377107D02*
X139627107Y-126678183D01*
X136911817Y-123962893D01*
X138212893Y-122661817D01*
X140928183Y-125377107D01*
%TO.C,SW4*%
D12*
X101372200Y-132295900D02*
X101372200Y-133324797D01*
X101372200Y-135915203D02*
X101372200Y-136944100D01*
X101372200Y-136944100D02*
X114427800Y-136944100D01*
X114427800Y-132295900D02*
X101372200Y-132295900D01*
X114427800Y-133324797D02*
X114427800Y-132295900D01*
X114427800Y-136944100D02*
X114427800Y-135915203D01*
%TO.C,R8*%
D11*
X120710000Y-137180000D02*
X121660000Y-137180000D01*
X126450000Y-137180000D02*
X125500000Y-137180000D01*
X121660000Y-136260000D02*
X125500000Y-136260000D01*
X125500000Y-138100000D01*
X121660000Y-138100000D01*
X121660000Y-136260000D01*
%TO.C,R6*%
X117660604Y-132497166D02*
X118332356Y-131825414D01*
X121719397Y-128438373D02*
X121047646Y-129110124D01*
X121698184Y-129760662D02*
X118982894Y-132475952D01*
X117681818Y-131174876D01*
X120397108Y-128459586D01*
X121698184Y-129760662D01*
%TO.C,SW1*%
D12*
X101372200Y-117115900D02*
X101372200Y-118144797D01*
X101372200Y-120735203D02*
X101372200Y-121764100D01*
X101372200Y-121764100D02*
X114427800Y-121764100D01*
X114427800Y-117115900D02*
X101372200Y-117115900D01*
X114427800Y-118144797D02*
X114427800Y-117115900D01*
X114427800Y-121764100D02*
X114427800Y-120735203D01*
%TO.C,R16*%
D11*
X136890604Y-113060604D02*
X137562355Y-113732355D01*
X140949397Y-117119397D02*
X140277645Y-116447645D01*
X140928183Y-115797107D02*
X139627107Y-117098183D01*
X136911817Y-114382893D01*
X138212893Y-113081817D01*
X140928183Y-115797107D01*
%TO.C,J13*%
X97293000Y-133040000D02*
X97293000Y-133160000D01*
X97293000Y-133160000D02*
X99953000Y-133160000D01*
X98623000Y-130500000D02*
X99953000Y-130500000D01*
X99953000Y-130500000D02*
X99953000Y-131830000D01*
X99953000Y-133040000D02*
X99953000Y-133160000D01*
%TO.C,SW15*%
D12*
X144182201Y-122605900D02*
X144182201Y-123634797D01*
X144182201Y-126225203D02*
X144182201Y-127254100D01*
X144182201Y-127254100D02*
X157237801Y-127254100D01*
X157237801Y-122605900D02*
X144182201Y-122605900D01*
X157237801Y-123634797D02*
X157237801Y-122605900D01*
X157237801Y-127254100D02*
X157237801Y-126225203D01*
%TO.C,J1*%
D11*
X127090000Y-111230000D02*
X127090000Y-131670000D01*
X127090000Y-131670000D02*
X131590000Y-131670000D01*
X128340000Y-111230000D02*
X127090000Y-111230000D01*
X131590000Y-111230000D02*
X130340000Y-111230000D01*
X131590000Y-131670000D02*
X131590000Y-111230000D01*
X124090000Y-111170000D02*
X134590000Y-111170000D01*
X134590000Y-131730000D01*
X124090000Y-131730000D01*
X124090000Y-111170000D01*
X130340000Y-111230000D02*
G75*
G02*
X128340000Y-111230000I-1000000J0D01*
G01*
%TO.C,R15*%
X136890604Y-116330604D02*
X137562355Y-117002355D01*
X140949397Y-120389397D02*
X140277645Y-119717645D01*
X140928183Y-119067107D02*
X139627107Y-120368183D01*
X136911817Y-117652893D01*
X138212893Y-116351817D01*
X140928183Y-119067107D01*
%TO.C,SW5*%
D12*
X110292200Y-139245900D02*
X110292200Y-140274797D01*
X110292200Y-142865203D02*
X110292200Y-143894100D01*
X110292200Y-143894100D02*
X123347800Y-143894100D01*
X123347800Y-139245900D02*
X110292200Y-139245900D01*
X123347800Y-140274797D02*
X123347800Y-139245900D01*
X123347800Y-143894100D02*
X123347800Y-142865203D01*
%TO.C,J23*%
D11*
X159785000Y-126820000D02*
X159785000Y-126940000D01*
X159785000Y-126940000D02*
X161905000Y-126940000D01*
X160845000Y-124820000D02*
X161905000Y-124820000D01*
X161905000Y-124820000D02*
X161905000Y-125880000D01*
X161905000Y-126820000D02*
X161905000Y-126940000D01*
%TO.C,J24*%
X159785000Y-120820000D02*
X159785000Y-120940000D01*
X159785000Y-120940000D02*
X161905000Y-120940000D01*
X160845000Y-118820000D02*
X161905000Y-118820000D01*
X161905000Y-118820000D02*
X161905000Y-119880000D01*
X161905000Y-120820000D02*
X161905000Y-120940000D01*
%TO.C,J7*%
X157790000Y-154820000D02*
X157790000Y-156940000D01*
X161850000Y-154820000D02*
X157790000Y-154820000D01*
X161850000Y-154820000D02*
X161850000Y-156940000D01*
X161850000Y-156940000D02*
X157790000Y-156940000D01*
X163910000Y-155880000D02*
X163910000Y-156940000D01*
X163910000Y-156940000D02*
X162850000Y-156940000D01*
%TO.C,SW6*%
D12*
X110292200Y-144305900D02*
X110292200Y-145334797D01*
X110292200Y-147925203D02*
X110292200Y-148954100D01*
X110292200Y-148954100D02*
X123347800Y-148954100D01*
X123347800Y-144305900D02*
X110292200Y-144305900D01*
X123347800Y-145334797D02*
X123347800Y-144305900D01*
X123347800Y-148954100D02*
X123347800Y-147925203D01*
%TO.C,R9*%
D11*
X130630000Y-137180000D02*
X131580000Y-137180000D01*
X136370000Y-137180000D02*
X135420000Y-137180000D01*
X131580000Y-136260000D02*
X135420000Y-136260000D01*
X135420000Y-138100000D01*
X131580000Y-138100000D01*
X131580000Y-136260000D01*
%TO.C,R5*%
X117660604Y-129411243D02*
X118332356Y-128739491D01*
X121719397Y-125352450D02*
X121047646Y-126024201D01*
X121698184Y-126674739D02*
X118982894Y-129390029D01*
X117681818Y-128088953D01*
X120397108Y-125373663D01*
X121698184Y-126674739D01*
%TO.C,J15*%
X97293000Y-145040000D02*
X97293000Y-145160000D01*
X97293000Y-145160000D02*
X99953000Y-145160000D01*
X98623000Y-142500000D02*
X99953000Y-142500000D01*
X99953000Y-142500000D02*
X99953000Y-143830000D01*
X99953000Y-145040000D02*
X99953000Y-145160000D01*
%TO.C,J14*%
X97293000Y-139040000D02*
X97293000Y-139160000D01*
X97293000Y-139160000D02*
X99953000Y-139160000D01*
X98623000Y-136500000D02*
X99953000Y-136500000D01*
X99953000Y-136500000D02*
X99953000Y-137830000D01*
X99953000Y-139040000D02*
X99953000Y-139160000D01*
%TO.C,R12*%
X136890604Y-126020604D02*
X137562355Y-126692355D01*
X140949397Y-130079397D02*
X140277645Y-129407645D01*
X140928183Y-128757107D02*
X139627107Y-130058183D01*
X136911817Y-127342893D01*
X138212893Y-126041817D01*
X140928183Y-128757107D01*
%TO.C,J16*%
X97563000Y-150770000D02*
X97563000Y-150890000D01*
X97563000Y-150890000D02*
X99683000Y-150890000D01*
X98623000Y-148770000D02*
X99683000Y-148770000D01*
X99683000Y-148770000D02*
X99683000Y-149830000D01*
X99683000Y-150770000D02*
X99683000Y-150890000D01*
%TO.C,SW8*%
D12*
X110292200Y-154505900D02*
X110292200Y-155534797D01*
X110292200Y-158125203D02*
X110292200Y-159154100D01*
X110292200Y-159154100D02*
X123347800Y-159154100D01*
X123347800Y-154505900D02*
X110292200Y-154505900D01*
X123347800Y-155534797D02*
X123347800Y-154505900D01*
X123347800Y-159154100D02*
X123347800Y-158125203D01*
%TO.C,R1*%
D11*
X117630604Y-117059397D02*
X118302356Y-116387645D01*
X121689397Y-113000604D02*
X121017646Y-113672355D01*
X121668184Y-114322893D02*
X118952894Y-117038183D01*
X117651818Y-115737107D01*
X120367108Y-113021817D01*
X121668184Y-114322893D01*
%TO.C,R11*%
X136890604Y-129440604D02*
X137562355Y-130112355D01*
X140949397Y-133499397D02*
X140277645Y-132827645D01*
X140928183Y-132177107D02*
X139627107Y-133478183D01*
X136911817Y-130762893D01*
X138212893Y-129461817D01*
X140928183Y-132177107D01*
%TO.C,J21*%
X159785000Y-138820000D02*
X159785000Y-138940000D01*
X159785000Y-138940000D02*
X161905000Y-138940000D01*
X160845000Y-136820000D02*
X161905000Y-136820000D01*
X161905000Y-136820000D02*
X161905000Y-137880000D01*
X161905000Y-138820000D02*
X161905000Y-138940000D01*
%TO.C,SW10*%
D12*
X135072199Y-149405900D02*
X135072199Y-150434797D01*
X135072199Y-153025203D02*
X135072199Y-154054100D01*
X135072199Y-154054100D02*
X148127799Y-154054100D01*
X148127799Y-149405900D02*
X135072199Y-149405900D01*
X148127799Y-150434797D02*
X148127799Y-149405900D01*
X148127799Y-154054100D02*
X148127799Y-153025203D01*
%TO.C,SW7*%
X110292200Y-149405900D02*
X110292200Y-150434797D01*
X110292200Y-153025203D02*
X110292200Y-154054100D01*
X110292200Y-154054100D02*
X123347800Y-154054100D01*
X123347800Y-149405900D02*
X110292200Y-149405900D01*
X123347800Y-150434797D02*
X123347800Y-149405900D01*
X123347800Y-154054100D02*
X123347800Y-153025203D01*
%TO.C,J2*%
D11*
X95563000Y-112760000D02*
X96623000Y-112760000D01*
X95563000Y-113820000D02*
X95563000Y-112760000D01*
X97623000Y-112760000D02*
X101683000Y-112760000D01*
X97623000Y-114880000D02*
X97623000Y-112760000D01*
X97623000Y-114880000D02*
X101683000Y-114880000D01*
X101683000Y-114880000D02*
X101683000Y-112760000D01*
%TO.C,SW2*%
D12*
X101372200Y-122135900D02*
X101372200Y-123164797D01*
X101372200Y-125755203D02*
X101372200Y-126784100D01*
X101372200Y-126784100D02*
X114427800Y-126784100D01*
X114427800Y-122135900D02*
X101372200Y-122135900D01*
X114427800Y-123164797D02*
X114427800Y-122135900D01*
X114427800Y-126784100D02*
X114427800Y-125755203D01*
%TO.C,SW12*%
X135072199Y-139245900D02*
X135072199Y-140274797D01*
X135072199Y-142865203D02*
X135072199Y-143894100D01*
X135072199Y-143894100D02*
X148127799Y-143894100D01*
X148127799Y-139245900D02*
X135072199Y-139245900D01*
X148127799Y-140274797D02*
X148127799Y-139245900D01*
X148127799Y-143894100D02*
X148127799Y-142865203D01*
%TD*%
M02*
